<svg width="90" height="90" viewBox="0 0 90 90" fill="none" xmlns="http://www.w3.org/2000/svg">
<circle cx="45" cy="45" r="45" fill="#4C3D3B"/>
<path fill-rule="evenodd" clip-rule="evenodd" d="M39.082 52.0337C37.9127 52.9794 37.5492 52.8784 36.7939 51.3831L36.7929 51.3829C33.6829 45.2965 39.6211 35.9579 46.6597 35.8502C47.9465 35.8274 49.358 36.2438 49.4517 36.663C49.5038 36.9054 49.3788 37.0369 48.6808 37.5196C45.4405 39.7299 44.2373 41.5273 43.2752 45.5674C42.6138 48.307 41.4334 50.1358 39.082 52.0337ZM40.2671 52.8421C42.801 50.7896 44.0111 48.9957 44.8349 46.0801C45.5351 43.5913 45.5819 43.4773 46.1269 42.5059C46.9375 41.0862 47.8462 40.1886 49.8242 38.8818C51.2316 37.9511 51.7479 38.0125 52.3668 39.1704C55.1156 44.3686 51.1585 52.3263 44.7388 54.4991C42.8593 55.1351 40.4563 54.9508 39.6593 54.1021C39.2999 53.7108 39.3542 53.5843 40.2671 52.8421Z" fill="white"/>
<rect x="26.75" y="26.75" width="36.5" height="36.5" rx="18.25" stroke="white" stroke-width="1.5"/>
</svg>
