<svg width="100" height="100" viewBox="0 0 100 100" fill="none" xmlns="http://www.w3.org/2000/svg">
<g clip-path="url(#clip0_1474_55420)">
<path d="M-1.9706e-06 50C-3.05841e-06 77.6011 22.3989 100 50 100C77.6011 100 100 77.6011 100 50C100 22.3989 77.6342 -1.08429e-06 50 -2.424e-06C22.3658 -3.7637e-06 -8.82785e-07 22.3989 -1.9706e-06 50Z" fill="#E6EAF9"/>
<path fill-rule="evenodd" clip-rule="evenodd" d="M30.5036 54.4954C29.7563 55.0997 29.5239 55.0352 29.0412 54.0795L29.0406 54.0794C27.053 50.1896 30.8481 44.2214 35.3464 44.1525C36.1688 44.1379 37.0709 44.4041 37.1308 44.672C37.1641 44.8269 37.0842 44.911 36.6381 45.2194C34.5673 46.632 33.7983 47.7807 33.1834 50.3628C32.7607 52.1136 32.0063 53.2824 30.5036 54.4954ZM31.261 55.012C32.8804 53.7002 33.6537 52.5538 34.1802 50.6904C34.6277 49.0999 34.6576 49.027 35.0059 48.4061C35.524 47.4989 36.1047 46.9251 37.3689 46.09C38.2684 45.4952 38.5983 45.5344 38.9938 46.2745C40.7506 49.5966 38.2216 54.6824 34.1188 56.071C32.9176 56.4775 31.3818 56.3597 30.8725 55.8172C30.6428 55.5672 30.6775 55.4864 31.261 55.012Z" fill="#111111"/>
<circle cx="34.2855" cy="50.0009" r="9.86905" stroke="#444444" stroke-width="0.5"/>
<rect x="22.6428" y="38.3574" width="23.2857" height="23.2857" rx="11.6429" stroke="#111111"/>
<path d="M52.1428 47.1436L57.8571 52.8578" stroke="#111111" stroke-width="1.5" stroke-linecap="round" stroke-linejoin="round"/>
<path d="M57.8572 47.1436L52.1429 52.8578" stroke="#111111" stroke-width="1.5" stroke-linecap="round" stroke-linejoin="round"/>
<path d="M70.7143 58.0663C69.4518 58.0663 68.3636 57.7628 67.4498 57.156C66.536 56.5421 65.835 55.6528 65.3467 54.4879C64.8654 53.323 64.6248 51.9209 64.6248 50.2817C64.6248 48.6494 64.8689 47.2508 65.3572 46.0859C65.8455 44.9141 66.5465 44.0247 67.4603 43.4178C68.3741 42.804 69.4587 42.4971 70.7143 42.4971C71.9699 42.4971 73.0546 42.804 73.9684 43.4178C74.8822 44.0247 75.5832 44.9141 76.0715 46.0859C76.5597 47.2508 76.8039 48.6494 76.8039 50.2817C76.8039 51.9279 76.5597 53.3334 76.0715 54.4983C75.5832 55.6632 74.8822 56.5491 73.9684 57.156C73.0616 57.7628 71.9769 58.0663 70.7143 58.0663ZM67.8474 50.3758C67.8474 52.0499 68.102 53.3195 68.6112 54.1844C69.1204 55.0424 69.8215 55.4714 70.7143 55.4714C71.6142 55.4714 72.3187 55.0354 72.8279 54.1635C73.3371 53.2846 73.5882 51.9907 73.5812 50.2817C73.5812 49.1516 73.4661 48.1995 73.2359 47.4252C73.0058 46.644 72.6744 46.058 72.2419 45.6674C71.8095 45.2768 71.3003 45.078 70.7143 45.071C69.8145 45.078 69.11 45.5314 68.6008 46.4312C68.0985 47.3311 67.8474 48.6459 67.8474 50.3758Z" fill="#111111"/>
</g>
<defs>
<clipPath id="clip0_1474_55420">
<rect width="100" height="100" fill="white"/>
</clipPath>
</defs>
</svg>
