<svg width="267" height="30" viewBox="0 0 267 30" fill="none" xmlns="http://www.w3.org/2000/svg">
<path d="M1.41016 27.3198V2.65039H21.0694V8.54758H9.32933V11.8204H19.2822V17.4705H9.32933V21.2991H21.5624V27.2889H1.41016V27.3198Z" fill="#CCCCCC"/>
<path d="M25.2604 27.3198V2.65039H34.8127C37.247 2.65039 39.0342 2.74301 40.236 2.95914C41.4377 3.17527 42.4546 3.54577 43.3482 4.03977C45.0429 5.02778 46.3371 6.44806 47.1999 8.2697C48.0627 10.0913 48.4941 12.3144 48.4941 14.9696C48.4941 17.7484 47.9703 20.1258 46.8918 22.0092C45.8441 23.9235 44.2726 25.3129 42.1772 26.2391C41.3761 26.6096 40.3592 26.8566 39.1575 27.011C37.9557 27.1654 36.0145 27.258 33.3645 27.258H25.2604V27.3198ZM33.1488 21.083H35.2749C37.247 21.083 38.6028 20.6507 39.3732 19.7553C40.1435 18.8908 40.5133 17.3162 40.5133 15.0314C40.5133 12.7466 40.1127 11.2337 39.3424 10.3075C38.572 9.38121 37.247 8.91808 35.3674 8.91808H33.1488V21.083V21.083Z" fill="#CCCCCC"/>
<path d="M52.224 27.3198V2.65039H60.2972V27.3198H52.224Z" fill="#CCCCCC"/>
<path d="M72.8677 27.3198V18.1807L63.8084 2.65039H72.5596L76.7811 11.0485L81.0642 2.65039H89.5996L80.756 18.1807V27.3198H72.8677Z" fill="#CCCCCC"/>
<path d="M85.8387 27.3198L94.4974 2.65039H102.509L111.168 27.3198H103.341L102.417 24.047H94.5899L93.6346 27.3198H85.8695H85.8387ZM96.0073 18.8908H100.968L98.5032 10.3383L96.0073 18.8908V18.8908Z" fill="#CCCCCC"/>
<path d="M139.732 17.7497H147.22C147.004 20.9916 145.864 23.5234 143.799 25.3142C141.735 27.1049 138.962 28.0003 135.418 28.0003C131.474 28.0003 128.362 26.8271 126.112 24.5423C123.832 22.2266 122.723 19.0465 122.723 15.0327C122.723 11.0189 123.863 7.83873 126.081 5.52308C128.331 3.20743 131.381 2.03418 135.233 2.03418C138.808 2.03418 141.612 2.89869 143.645 4.62771C145.679 6.35673 146.85 8.82674 147.066 12.0378H139.485C139.362 10.7719 138.962 9.81475 138.253 9.16637C137.544 8.51799 136.558 8.20924 135.295 8.20924C133.754 8.20924 132.583 8.765 131.813 9.90738C131.042 11.0498 130.642 12.7479 130.642 15.0327C130.642 17.3175 131.073 18.9847 131.874 20.1271C132.706 21.2695 133.908 21.8561 135.51 21.8561C136.743 21.8561 137.698 21.4856 138.438 20.7755C139.146 20.0654 139.578 19.0774 139.701 17.7806L139.732 17.7497Z" fill="#CCCCCC"/>
<path d="M149.502 14.9985C149.502 10.9847 150.642 7.80456 152.922 5.48892C155.202 3.17327 158.345 2 162.29 2C166.234 2 169.346 3.17327 171.626 5.48892C173.906 7.80456 175.047 10.9847 175.047 14.9985C175.047 19.0123 173.906 22.1616 171.626 24.5081C169.346 26.8238 166.234 27.997 162.29 27.997C158.345 27.997 155.233 26.8238 152.922 24.5081C150.642 22.1925 149.502 19.0123 149.502 14.9985ZM157.483 14.9985C157.483 17.3142 157.883 19.0432 158.654 20.1547C159.424 21.2353 160.657 21.7911 162.29 21.7911C163.923 21.7911 165.155 21.2353 165.926 20.1547C166.696 19.0741 167.066 17.345 167.066 14.9985C167.066 12.652 166.696 10.923 165.926 9.84234C165.155 8.7617 163.954 8.20595 162.29 8.20595C160.626 8.20595 159.424 8.7617 158.654 9.84234C157.883 10.923 157.483 12.652 157.483 14.9985Z" fill="#CCCCCC"/>
<path d="M178.681 27.3198V2.65039H197.293V8.85633H186.57V12.6849H195.074V18.6438H186.57V27.3198H178.651H178.681Z" fill="#CCCCCC"/>
<path d="M200.283 27.3198V2.65039H218.894V8.85633H208.171V12.6849H216.707V18.6438H208.171V27.3198H200.283Z" fill="#CCCCCC"/>
<path d="M221.916 27.3198V2.65039H241.606V8.54758H229.835V11.8204H239.788V17.4705H229.835V21.2991H242.068V27.2889H221.916V27.3198Z" fill="#CCCCCC"/>
<path d="M245.763 27.3198V2.65039H265.422V8.54758H253.651V11.8204H263.604V17.4705H253.651V21.2991H265.884V27.2889H245.732L245.763 27.3198Z" fill="#CCCCCC"/>
</svg>
