<svg width="20" height="20" viewBox="0 0 20 20" fill="none" xmlns="http://www.w3.org/2000/svg">
<path d="M12.0224 11.6061C11.8143 11.8294 11.5634 12.0085 11.2846 12.1327C11.0059 12.257 10.7049 12.3238 10.3997 12.3291C10.0946 12.3345 9.79146 12.2784 9.50847 12.1641C9.22548 12.0498 8.9684 11.8796 8.75259 11.6638C8.53677 11.448 8.36664 11.1909 8.25233 10.9079C8.13803 10.625 8.08189 10.3218 8.08728 10.0167C8.09266 9.71152 8.15945 9.41057 8.28367 9.13178C8.40789 8.853 8.58699 8.60208 8.81028 8.39402M14.9163 14.5001C13.6213 15.4872 12.0445 16.0341 10.4163 16.0607C5.11331 16.0607 2.08301 10.0001 2.08301 10.0001C3.02535 8.24394 4.33235 6.70963 5.91634 5.50008L14.9163 14.5001ZM8.82543 4.12129C9.3469 3.99923 9.88078 3.93821 10.4163 3.93947C15.7194 3.93947 18.7497 10.0001 18.7497 10.0001C18.2898 10.8604 17.7414 11.6703 17.1133 12.4167L8.82543 4.12129Z" stroke="#666666" stroke-width="1.5" stroke-linecap="round" stroke-linejoin="round"/>
<path d="M2.08301 1.66699L18.7497 18.3337" stroke="#666666" stroke-width="1.5" stroke-linecap="round" stroke-linejoin="round"/>
</svg>
