<svg width="16" height="16" viewBox="0 0 16 16" fill="none" xmlns="http://www.w3.org/2000/svg">
<path d="M13.3332 6.66634C12.5968 6.66634 11.9998 7.26329 11.9998 7.99967C11.9998 8.73605 12.5968 9.33301 13.3332 9.33301C14.0696 9.33301 14.6665 8.73605 14.6665 7.99967C14.6665 7.26329 14.0696 6.66634 13.3332 6.66634Z" fill="#CCCCCC"/>
<path d="M7.99984 6.66634C7.26346 6.66634 6.6665 7.26329 6.6665 7.99967C6.6665 8.73605 7.26346 9.33301 7.99984 9.33301C8.73622 9.33301 9.33317 8.73605 9.33317 7.99967C9.33317 7.26329 8.73622 6.66634 7.99984 6.66634Z" fill="#CCCCCC"/>
<path d="M2.6665 6.66634C1.93012 6.66634 1.33317 7.26329 1.33317 7.99967C1.33317 8.73605 1.93012 9.33301 2.6665 9.33301C3.40288 9.33301 3.99984 8.73605 3.99984 7.99967C3.99984 7.26329 3.40288 6.66634 2.6665 6.66634Z" fill="#CCCCCC"/>
</svg>
