<svg width="17" height="16" viewBox="0 0 17 16" fill="none" xmlns="http://www.w3.org/2000/svg">
<path d="M15.6666 10.8578C15.6666 10.5817 15.4427 10.3578 15.1666 10.3578C14.8904 10.3578 14.6666 10.5817 14.6666 10.8578H15.6666ZM2.33325 10.8578C2.33325 10.5817 2.10939 10.3578 1.83325 10.3578C1.55711 10.3578 1.33325 10.5817 1.33325 10.8578H2.33325ZM8.99992 1.33398C8.99992 1.05784 8.77606 0.833984 8.49992 0.833984C8.22378 0.833984 7.99992 1.05784 7.99992 1.33398H8.99992ZM8.49992 10.8578L8.14637 11.2113C8.34163 11.4066 8.65821 11.4066 8.85347 11.2113L8.49992 10.8578ZM6.94871 8.59948C6.75345 8.40422 6.43687 8.40422 6.2416 8.59948C6.04634 8.79474 6.04634 9.11132 6.2416 9.30659L6.94871 8.59948ZM10.7582 9.30659C10.9535 9.11132 10.9535 8.79474 10.7582 8.59948C10.563 8.40422 10.2464 8.40422 10.0511 8.59948L10.7582 9.30659ZM13.2618 14.1673H3.73801V15.1673H13.2618V14.1673ZM15.6666 12.7626V10.8578H14.6666V12.7626H15.6666ZM2.33325 12.7626V10.8578H1.33325V12.7626H2.33325ZM3.73801 14.1673C2.96219 14.1673 2.33325 13.5384 2.33325 12.7626H1.33325C1.33325 14.0907 2.4099 15.1673 3.73801 15.1673V14.1673ZM13.2618 15.1673C14.5899 15.1673 15.6666 14.0907 15.6666 12.7626H14.6666C14.6666 13.5384 14.0377 14.1673 13.2618 14.1673V15.1673ZM7.99992 1.33398V10.8578H8.99992V1.33398H7.99992ZM8.85347 10.5042L6.94871 8.59948L6.2416 9.30659L8.14637 11.2113L8.85347 10.5042ZM8.85347 11.2113L10.7582 9.30659L10.0511 8.59948L8.14637 10.5042L8.85347 11.2113Z" fill="white"/>
</svg>
