<svg width="20" height="20" viewBox="0 0 20 20" fill="none" xmlns="http://www.w3.org/2000/svg">
<path d="M0.833496 9.99967L0.162676 9.66426C0.0571029 9.87541 0.0571029 10.1239 0.162676 10.3351L0.833496 9.99967ZM19.1668 9.99967L19.8376 10.3351C19.9432 10.1239 19.9432 9.87541 19.8376 9.66426L19.1668 9.99967ZM0.833496 9.99967C1.50432 10.3351 1.50421 10.3353 1.50412 10.3355C1.50411 10.3355 1.50403 10.3356 1.50401 10.3357C1.50396 10.3358 1.50395 10.3358 1.504 10.3357C1.5041 10.3355 1.50439 10.3349 1.50489 10.334C1.50588 10.332 1.50766 10.3285 1.51025 10.3235C1.51542 10.3134 1.52376 10.2973 1.53526 10.2756C1.55827 10.2321 1.59385 10.1662 1.6418 10.0809C1.73776 9.91032 1.88291 9.66312 2.0755 9.3649C2.46163 8.76702 3.03358 7.97173 3.77648 7.1793C5.27597 5.57984 7.38313 4.08301 10.0002 4.08301V2.58301C6.78386 2.58301 4.30769 4.4195 2.68218 6.15339C1.86258 7.02762 1.23661 7.89899 0.815446 8.55111C0.604399 8.8779 0.443556 9.15153 0.334437 9.34552C0.279849 9.44257 0.238121 9.51983 0.209447 9.57402C0.195108 9.60111 0.184025 9.62246 0.176224 9.63763C0.172323 9.64522 0.169241 9.65127 0.166982 9.65572C0.165853 9.65795 0.164929 9.65978 0.164211 9.6612C0.163852 9.66192 0.163545 9.66253 0.163289 9.66304C0.163161 9.66329 0.163007 9.6636 0.162944 9.66373C0.162803 9.66401 0.162676 9.66426 0.833496 9.99967ZM10.0002 4.08301C12.6172 4.08301 14.7244 5.57984 16.2238 7.1793C16.9667 7.97173 17.5387 8.76702 17.9248 9.3649C18.1174 9.66312 18.2626 9.91032 18.3585 10.0809C18.4065 10.1662 18.4421 10.2321 18.4651 10.2756C18.4766 10.2973 18.4849 10.3134 18.4901 10.3235C18.4927 10.3285 18.4944 10.332 18.4954 10.334C18.4959 10.3349 18.4962 10.3355 18.4963 10.3357C18.4964 10.3358 18.4964 10.3358 18.4963 10.3357C18.4963 10.3356 18.4962 10.3355 18.4962 10.3355C18.4961 10.3353 18.496 10.3351 19.1668 9.99967C19.8376 9.66426 19.8375 9.66401 19.8374 9.66373C19.8373 9.6636 19.8372 9.66329 19.837 9.66304C19.8368 9.66253 19.8365 9.66192 19.8361 9.6612C19.8354 9.65978 19.8345 9.65795 19.8333 9.65572C19.8311 9.65127 19.828 9.64522 19.8241 9.63763C19.8163 9.62246 19.8052 9.60111 19.7909 9.57402C19.7622 9.51983 19.7205 9.44257 19.6659 9.34552C19.5568 9.15153 19.3959 8.8779 19.1849 8.55111C18.7637 7.89899 18.1377 7.02762 17.3181 6.15339C15.6926 4.4195 13.2165 2.58301 10.0002 2.58301V4.08301ZM19.1668 9.99967C18.496 9.66426 18.4961 9.66406 18.4962 9.66388C18.4962 9.66386 18.4963 9.6637 18.4963 9.66365C18.4964 9.66354 18.4964 9.66354 18.4963 9.66363C18.4962 9.66382 18.4959 9.66441 18.4954 9.66538C18.4944 9.66734 18.4927 9.67085 18.4901 9.67588C18.4849 9.68593 18.4766 9.70203 18.4651 9.72376C18.4421 9.76722 18.4065 9.83319 18.3585 9.91844C18.2626 10.089 18.1174 10.3362 17.9248 10.6344C17.5387 11.2323 16.9667 12.0276 16.2238 12.8201C14.7244 14.4195 12.6172 15.9163 10.0002 15.9163V17.4163C13.2165 17.4163 15.6926 15.5798 17.3181 13.846C18.1377 12.9717 18.7637 12.1004 19.1849 11.4482C19.3959 11.1215 19.5568 10.8478 19.6659 10.6538C19.7205 10.5568 19.7622 10.4795 19.7909 10.4253C19.8052 10.3982 19.8163 10.3769 19.8241 10.3617C19.828 10.3541 19.8311 10.3481 19.8333 10.3436C19.8345 10.3414 19.8354 10.3396 19.8361 10.3381C19.8365 10.3374 19.8368 10.3368 19.837 10.3363C19.8372 10.3361 19.8373 10.3357 19.8374 10.3356C19.8375 10.3353 19.8376 10.3351 19.1668 9.99967ZM10.0002 15.9163C7.38313 15.9163 5.27597 14.4195 3.77648 12.8201C3.03358 12.0276 2.46163 11.2323 2.0755 10.6344C1.88291 10.3362 1.73776 10.089 1.6418 9.91844C1.59385 9.83319 1.55827 9.76722 1.53526 9.72376C1.52376 9.70203 1.51542 9.68593 1.51025 9.67588C1.50766 9.67085 1.50588 9.66734 1.50489 9.66538C1.50439 9.66441 1.5041 9.66382 1.504 9.66363C1.50395 9.66354 1.50396 9.66354 1.50401 9.66365C1.50403 9.6637 1.50411 9.66386 1.50412 9.66388C1.50421 9.66406 1.50432 9.66426 0.833496 9.99967C0.162676 10.3351 0.162803 10.3353 0.162944 10.3356C0.163007 10.3357 0.163161 10.3361 0.163289 10.3363C0.163545 10.3368 0.163852 10.3374 0.164211 10.3381C0.164929 10.3396 0.165853 10.3414 0.166982 10.3436C0.169241 10.3481 0.172323 10.3541 0.176224 10.3617C0.184025 10.3769 0.195108 10.3982 0.209447 10.4253C0.238121 10.4795 0.279849 10.5568 0.334437 10.6538C0.443556 10.8478 0.604399 11.1215 0.815446 11.4482C1.23661 12.1004 1.86258 12.9717 2.68218 13.846C4.30769 15.5798 6.78386 17.4163 10.0002 17.4163V15.9163ZM11.7502 9.99967C11.7502 10.9662 10.9667 11.7497 10.0002 11.7497V13.2497C11.7951 13.2497 13.2502 11.7946 13.2502 9.99967H11.7502ZM10.0002 11.7497C9.03366 11.7497 8.25016 10.9662 8.25016 9.99967H6.75016C6.75016 11.7946 8.20524 13.2497 10.0002 13.2497V11.7497ZM8.25016 9.99967C8.25016 9.03318 9.03366 8.24967 10.0002 8.24967V6.74967C8.20524 6.74967 6.75016 8.20475 6.75016 9.99967H8.25016ZM10.0002 8.24967C10.9667 8.24967 11.7502 9.03318 11.7502 9.99967H13.2502C13.2502 8.20475 11.7951 6.74967 10.0002 6.74967V8.24967Z" fill="#666666"/>
</svg>
