<svg width="56" height="56" viewBox="0 0 56 56" fill="none" xmlns="http://www.w3.org/2000/svg">
<circle cx="28" cy="28" r="26" fill="#111111"/>
<path d="M34.0349 27.6865C34.0097 24.9029 36.3193 23.5665 36.4213 23.5045C35.1235 21.6132 33.0999 21.3496 32.3821 21.318C30.6592 21.1453 29.0197 22.3289 28.1483 22.3289C27.2769 22.3289 25.9262 21.347 24.5012 21.3747C22.6207 21.3997 20.8938 22.462 19.9257 24.1293C17.9763 27.4954 19.4251 32.4853 21.3282 35.2149C22.2552 36.5513 23.361 38.0525 24.8137 37.9985C26.2162 37.9445 26.7459 37.0983 28.4384 37.0983C30.1308 37.0983 30.6063 37.9985 32.0882 37.9761C33.5939 37.9445 34.5487 36.608 35.4678 35.2716C36.5325 33.7203 36.9748 32.2191 37 32.14C36.9669 32.1282 34.0627 31.0184 34.0336 27.6865H34.0349Z" fill="white"/>
<path d="M31.2493 19.5111C32.0227 18.5819 32.5432 17.2877 32.4001 16C31.289 16.0422 29.9422 16.7394 29.1463 17.6646C28.4299 18.491 27.8008 19.8116 27.9717 21.0716C29.2099 21.1652 30.4799 20.443 31.2493 19.5111Z" fill="white"/>
</svg>
