<svg width="20" height="20" viewBox="0 0 20 20" fill="none" xmlns="http://www.w3.org/2000/svg">
<path d="M6.47206 8.14945C6.47206 8.56366 6.80785 8.89945 7.22206 8.89945C7.63627 8.89945 7.97206 8.56366 7.97206 8.14945L6.47206 8.14945ZM9.99984 10.9272L9.99984 10.1772C9.80092 10.1772 9.61016 10.2562 9.46951 10.3969C9.32885 10.5376 9.24984 10.7283 9.24984 10.9272H9.99984ZM9.24984 11.8532C9.24984 12.2674 9.58562 12.6032 9.99984 12.6032C10.4141 12.6032 10.7498 12.2674 10.7498 11.8532H9.24984ZM7.97206 8.14945C7.97206 7.74839 8.09099 7.35634 8.3138 7.02288L7.0666 6.18952C6.67896 6.76966 6.47206 7.45172 6.47206 8.14945L7.97206 8.14945ZM8.3138 7.02288C8.53662 6.68941 8.85331 6.42951 9.22384 6.27603L8.64982 4.89021C8.0052 5.15722 7.45423 5.60938 7.0666 6.18952L8.3138 7.02288ZM9.22384 6.27603C9.59437 6.12255 10.0021 6.08239 10.3954 6.16064L10.6881 4.68946C10.0038 4.55334 9.29443 4.6232 8.64982 4.89021L9.22384 6.27603ZM10.3954 6.16064C10.7888 6.23888 11.1501 6.43201 11.4337 6.7156L12.4944 5.65494C12.001 5.16157 11.3724 4.82558 10.6881 4.68946L10.3954 6.16064ZM11.4337 6.7156C11.7173 6.99919 11.9104 7.3605 11.9887 7.75385L13.4598 7.46122C13.3237 6.77689 12.9877 6.1483 12.4944 5.65494L11.4337 6.7156ZM11.9887 7.75385C12.0669 8.1472 12.0267 8.55492 11.8733 8.92545L13.2591 9.49947C13.5261 8.85486 13.596 8.14554 13.4598 7.46122L11.9887 7.75385ZM11.8733 8.92545C11.7198 9.29598 11.4599 9.61267 11.1264 9.83549L11.9598 11.0827C12.5399 10.6951 12.9921 10.1441 13.2591 9.49947L11.8733 8.92545ZM11.1264 9.83549C10.7929 10.0583 10.4009 10.1772 9.99984 10.1772L9.99984 11.6772C10.6976 11.6772 11.3796 11.4703 11.9598 11.0827L11.1264 9.83549ZM9.24984 10.9272V11.8532H10.7498V10.9272H9.24984ZM17.5832 10.0013C17.5832 14.1895 14.188 17.5846 9.99984 17.5846V19.0846C15.0164 19.0846 19.0832 15.0179 19.0832 10.0013H17.5832ZM9.99984 17.5846C5.81168 17.5846 2.4165 14.1895 2.4165 10.0013H0.916504C0.916504 15.0179 4.98325 19.0846 9.99984 19.0846V17.5846ZM2.4165 10.0013C2.4165 5.81314 5.81168 2.41797 9.99984 2.41797V0.917969C4.98325 0.917969 0.916504 4.98472 0.916504 10.0013H2.4165ZM9.99984 2.41797C14.188 2.41797 17.5832 5.81314 17.5832 10.0013H19.0832C19.0832 4.98472 15.0164 0.917969 9.99984 0.917969V2.41797Z" fill="#111111"/>
<circle cx="9.99984" cy="14.1654" r="0.833333" fill="#111111"/>
</svg>
