<svg width="20" height="20" viewBox="0 0 20 20" fill="none" xmlns="http://www.w3.org/2000/svg">
<path d="M3.63208 4.375H16.3679C16.6682 4.375 16.9561 4.48932 17.1684 4.69282C17.3807 4.89632 17.5 5.17233 17.5 5.46012V15.7899C17.5 16.0777 17.3807 16.3537 17.1684 16.5572C16.9561 16.7607 16.6682 16.875 16.3679 16.875H3.63208C3.33183 16.875 3.04388 16.7607 2.83158 16.5572C2.61927 16.3537 2.5 16.0777 2.5 15.7899V5.46012C2.5 5.17233 2.61927 4.89632 2.83158 4.69282C3.04388 4.48932 3.33183 4.375 3.63208 4.375V4.375Z" stroke="#111111" stroke-width="1.5" stroke-linecap="round" stroke-linejoin="round"/>
<path d="M6.23926 2.5V6.25" stroke="#111111" stroke-width="1.5" stroke-linecap="round"/>
<path d="M13.7178 2.5V6.25" stroke="#111111" stroke-width="1.5" stroke-linecap="round"/>
<path d="M8 11.5L9.57538 13L12.5 9.5" stroke="#111111" stroke-width="1.5" stroke-linecap="round" stroke-linejoin="round"/>
</svg>
