<svg width="36" height="36" viewBox="0 0 36 36" fill="none" xmlns="http://www.w3.org/2000/svg">
<rect x="2.00012" y="2.00098" width="32" height="32" rx="16" fill="#5C5C5C"/>
<path d="M18.4251 24.5937L14.4911 24.5219C13.2174 24.4969 11.9405 24.5468 10.6917 24.2875C8.79203 23.9001 8.65745 22.0003 8.51663 20.4067C8.32259 18.1664 8.39771 15.8854 8.76389 13.6637C8.9706 12.4171 9.78413 11.6733 11.0422 11.5923C15.2892 11.2986 19.5644 11.3334 23.8019 11.4704C24.2494 11.483 24.7001 11.5517 25.1414 11.6298C27.3197 12.0111 27.3728 14.1639 27.514 15.9763C27.6548 17.8073 27.5954 19.6477 27.3262 21.4663C27.1103 22.972 26.6971 24.2347 24.9536 24.3566C22.769 24.516 20.6346 24.6443 18.4438 24.6034C18.4439 24.5937 18.4314 24.5937 18.4251 24.5937ZM16.1123 20.7817C17.7586 19.838 19.3734 18.91 21.0102 17.9726C19.3609 17.0289 17.7491 16.1009 16.1123 15.1636V20.7817Z" fill="white"/>
</svg>
