<svg width="20" height="20" viewBox="0 0 20 20" fill="none" xmlns="http://www.w3.org/2000/svg">
<path fill-rule="evenodd" clip-rule="evenodd" d="M18.3332 10.0003C18.3332 14.6028 14.6015 18.3337 9.99984 18.3337C5.39817 18.3337 1.6665 14.6028 1.6665 10.0003C1.6665 5.39866 5.39817 1.66699 9.99984 1.66699C14.6015 1.66699 18.3332 5.39866 18.3332 10.0003Z" fill="#CCCCCC"/>
<path fill-rule="evenodd" clip-rule="evenodd" d="M10.9977 10.0008L13.7907 7.25079C14.0657 6.97879 14.0697 6.53579 13.7987 6.2598C13.5247 5.9838 13.0837 5.9818 12.8087 6.2528L9.99975 9.01877L7.19077 6.2528C6.91477 5.9808 6.47377 5.9838 6.20077 6.2598C5.92978 6.53579 5.93378 6.97879 6.20877 7.25079L9.00176 10.0008L6.20877 12.7507C5.93378 13.0217 5.92978 13.4657 6.20077 13.7407C6.33877 13.8797 6.51877 13.9497 6.69977 13.9497C6.87777 13.9497 7.05477 13.8827 7.19077 13.7487L9.99975 10.9827L12.8087 13.7487C12.9447 13.8827 13.1217 13.9497 13.2997 13.9497C13.4797 13.9497 13.6607 13.8797 13.7987 13.7407C14.0697 13.4657 14.0657 13.0217 13.7907 12.7507L10.9977 10.0008Z" fill="white"/>
</svg>
