<svg width="40" height="40" viewBox="0 0 40 40" fill="none" xmlns="http://www.w3.org/2000/svg">
<rect x="1.25" y="1.25" width="37.5" height="37.5" rx="4" fill="#EEEEEE"/>
<path fill-rule="evenodd" clip-rule="evenodd" d="M27.3863 18.8495C27.2777 18.9589 27.12 19.0105 26.9195 18.9711L25.8152 18.8539C25.6217 18.839 25.4474 18.8994 25.3169 19.0298L22.0031 22.3424C21.968 22.3774 21.9365 22.4168 21.9111 22.4597L21.7999 22.6452C21.7474 22.7327 21.7167 22.8342 21.7123 22.9366L21.5801 26.2413C21.5197 26.3113 21.4373 26.3577 21.3428 26.3735C21.214 26.3971 21.0862 26.3533 20.9925 26.2606L17.3678 22.6356C17.3669 22.6347 17.3669 22.6338 17.3669 22.6338C17.3669 22.6338 17.366 22.6329 17.3651 22.6329L13.7396 19.0079C13.6476 18.9143 13.6064 18.7865 13.6275 18.6562C13.6353 18.608 13.6634 18.5022 13.7588 18.419L17.0639 18.286C17.1663 18.2825 17.267 18.2519 17.3555 18.1994L17.5412 18.0883C17.5841 18.0629 17.6235 18.0314 17.6585 17.9964L20.9723 14.6838C21.1028 14.5534 21.1676 14.3696 21.1483 14.1859L21.0231 13.0335C20.9942 12.8796 21.0424 12.7221 21.1527 12.6127C21.2412 12.5243 21.3594 12.4753 21.4855 12.4753C21.6107 12.4753 21.7281 12.5243 21.8174 12.6127L27.3872 18.1819C27.5711 18.3665 27.5711 18.6658 27.3863 18.8495ZM28.2541 17.318V17.3171L22.6844 11.7479C22.3647 11.4276 21.9391 11.25 21.4864 11.25H21.4855C21.0318 11.25 20.6062 11.4267 20.2857 11.747C19.889 12.1425 19.7147 12.7077 19.8111 13.2117L19.8978 14.0254L16.8528 17.0695L13.5469 17.2016C13.461 17.2051 13.3761 17.227 13.2981 17.2646C12.8314 17.4982 12.5012 17.9445 12.4171 18.4598C12.3331 18.9752 12.503 19.5037 12.8725 19.8738L16.0664 23.0675L11.4293 27.704C11.1902 27.9437 11.1902 28.3313 11.4293 28.5702C11.5493 28.6901 11.7069 28.7496 11.8628 28.7496C12.0204 28.7496 12.1772 28.6901 12.2972 28.5702L16.9325 23.9346L20.1255 27.1274C20.4337 27.4345 20.8506 27.6042 21.2788 27.6042C21.3655 27.6042 21.4531 27.5972 21.5398 27.5823C22.0556 27.4992 22.5022 27.1702 22.7352 26.7021C22.7737 26.6251 22.7956 26.5402 22.7991 26.4536L22.9313 23.148L25.9781 20.103L26.7399 20.1818C27.2952 20.2903 27.8591 20.1118 28.2541 19.7154C28.9153 19.0548 28.9153 17.9795 28.2541 17.318Z" fill="#444444"/>
</svg>
