<svg width="100" height="100" viewBox="0 0 100 100" fill="none" xmlns="http://www.w3.org/2000/svg">
<g clip-path="url(#clip0_1474_55448)">
<path d="M-1.71723e-06 50C-2.66518e-06 77.6011 22.3989 100 50 100C77.6011 100 100 77.6011 100 50C100 22.3989 77.6342 -1.24427e-06 50 -2.78163e-06C22.3658 -4.319e-06 -7.69284e-07 22.3989 -1.71723e-06 50Z" fill="#2A47BF"/>
<path fill-rule="evenodd" clip-rule="evenodd" d="M23.7205 54.4972C22.9731 55.102 22.7405 55.0375 22.2565 54.0819L22.2559 54.0818C20.2634 50.1923 24.0569 44.2218 28.5591 44.1512C29.3822 44.1363 30.2852 44.4021 30.3454 44.6701C30.3789 44.8249 30.299 44.9091 29.8528 45.2178C27.7813 46.6313 27.0126 47.7805 26.3993 50.3631C25.9777 52.1143 25.2236 53.2835 23.7205 54.4972ZM24.4752 55.0145C26.0949 53.702 26.868 52.5551 27.3934 50.6913C27.84 49.1004 27.8698 49.0275 28.2179 48.4064C28.7357 47.4988 29.3164 46.9248 30.581 46.0891C31.4807 45.4939 31.811 45.533 32.2074 46.273C33.9684 49.595 31.4414 54.6823 27.3363 56.0726C26.1344 56.4796 24.5973 56.3624 24.0871 55.82C23.8569 55.57 23.8916 55.4892 24.4752 55.0145Z" fill="white"/>
<path d="M37.3691 50.0009C37.3691 55.4514 32.9506 59.8699 27.5 59.8699C22.0495 59.8699 17.631 55.4514 17.631 50.0009C17.631 44.5504 22.0495 40.1318 27.5 40.1318C32.9506 40.1318 37.3691 44.5504 37.3691 50.0009Z" stroke="white" stroke-width="0.5"/>
<rect x="15.8572" y="38.3574" width="23.2857" height="23.2857" rx="11.6429" stroke="white"/>
<path d="M45.3572 47.1436L51.0715 52.8578" stroke="white" stroke-width="1.5" stroke-linecap="round" stroke-linejoin="round"/>
<path d="M51.0714 47.1436L45.3571 52.8578" stroke="white" stroke-width="1.5" stroke-linecap="round" stroke-linejoin="round"/>
<path d="M58.2736 55.576L63.7145 50.5746C64.2516 50.0585 64.6666 49.633 64.9596 49.2981C65.2595 48.9563 65.4897 48.618 65.6502 48.2832C65.8106 47.9414 65.8908 47.5752 65.8908 47.1846C65.8908 46.7451 65.7862 46.3615 65.5769 46.0336C65.3746 45.6988 65.0886 45.4442 64.7189 45.2698C64.3562 45.0954 63.9447 45.0082 63.4843 45.0082C62.7658 45.0013 62.1938 45.2105 61.7683 45.636C61.3428 46.0545 61.1336 46.6265 61.1405 47.352H58.1481C58.1481 46.3824 58.3713 45.5314 58.8177 44.799C59.2711 44.0596 59.9024 43.4911 60.7115 43.0935C61.5277 42.6959 62.4659 42.4971 63.5261 42.4971C64.5934 42.4971 65.5351 42.6889 66.3512 43.0725C67.1673 43.4492 67.7986 43.9759 68.245 44.6525C68.6984 45.3291 68.9251 46.1034 68.9251 46.9753C68.9251 47.5752 68.81 48.1507 68.5799 48.7017C68.3497 49.2458 67.9486 49.8527 67.3766 50.5223C66.8116 51.192 66.0094 51.9976 64.9701 52.9393L62.6682 55.1784V55.2621H69.1344V57.857H58.2946L58.2736 55.576Z" fill="white"/>
<path d="M77.2538 58.0663C75.9913 58.0663 74.9031 57.7628 73.9893 57.156C73.0755 56.5421 72.3745 55.6528 71.8862 54.4879C71.4049 53.323 71.1643 51.9209 71.1643 50.2817C71.1643 48.6494 71.4084 47.2508 71.8967 46.0859C72.385 44.9141 73.086 44.0247 73.9998 43.4178C74.9136 42.804 75.9982 42.4971 77.2538 42.4971C78.5094 42.4971 79.5941 42.804 80.5079 43.4178C81.4216 44.0247 82.1227 44.9141 82.611 46.0859C83.0992 47.2508 83.3434 48.6494 83.3434 50.2817C83.3434 51.9279 83.0992 53.3334 82.611 54.4983C82.1227 55.6632 81.4216 56.5491 80.5079 57.156C79.6011 57.7628 78.5164 58.0663 77.2538 58.0663ZM74.3869 50.3758C74.3869 52.0499 74.6415 53.3195 75.1507 54.1844C75.6599 55.0424 76.361 55.4714 77.2538 55.4714C78.1537 55.4714 78.8582 55.0354 79.3674 54.1635C79.8766 53.2846 80.1277 51.9907 80.1207 50.2817C80.1207 49.1516 80.0056 48.1995 79.7754 47.4252C79.5453 46.644 79.2139 46.058 78.7814 45.6674C78.349 45.2768 77.8398 45.078 77.2538 45.071C76.354 45.078 75.6495 45.5314 75.1403 46.4312C74.638 47.3311 74.3869 48.6459 74.3869 50.3758Z" fill="white"/>
</g>
<defs>
<clipPath id="clip0_1474_55448">
<rect width="100" height="100" fill="white"/>
</clipPath>
</defs>
</svg>
