<svg width="100" height="100" viewBox="0 0 100 100" fill="none" xmlns="http://www.w3.org/2000/svg">
<g clip-path="url(#clip0_1474_55434)">
<path d="M50 99.5C22.6751 99.5 0.499997 77.3249 0.499998 50C0.499999 22.6749 22.6422 0.499996 50 0.499997C77.3578 0.499999 99.5 22.6749 99.5 50C99.5 77.3249 77.3249 99.5 50 99.5Z" fill="white" stroke="#CCCCCC"/>
<path fill-rule="evenodd" clip-rule="evenodd" d="M30.8631 54.4972C30.1156 55.102 29.883 55.0375 29.3991 54.0819L29.3985 54.0818C27.406 50.1923 31.1994 44.2218 35.7017 44.1512C36.5247 44.1363 37.4278 44.4021 37.488 44.6701C37.5215 44.8249 37.4415 44.9091 36.9954 45.2178C34.9238 46.6313 34.1551 47.7805 33.5418 50.3631C33.1203 52.1143 32.3661 53.2835 30.8631 54.4972ZM31.6178 55.0145C33.2375 53.702 34.0105 52.5551 34.536 50.6913C34.9825 49.1004 35.0124 49.0275 35.3605 48.4064C35.8782 47.4988 36.459 46.9248 37.7235 46.0891C38.6233 45.4939 38.9535 45.533 39.35 46.273C41.111 49.595 38.584 54.6823 34.4789 56.0726C33.277 56.4796 31.7398 56.3624 31.2296 55.82C30.9995 55.57 31.0342 55.4892 31.6178 55.0145Z" fill="#111111"/>
<circle cx="34.6427" cy="50.0009" r="9.86905" stroke="#111111" stroke-width="0.5"/>
<rect x="23" y="38.3574" width="23.2857" height="23.2857" rx="11.6429" stroke="#111111"/>
<path d="M52.5 47.1436L58.2143 52.8578" stroke="#111111" stroke-width="1.5" stroke-linecap="round" stroke-linejoin="round"/>
<path d="M58.2144 47.1436L52.5001 52.8578" stroke="#111111" stroke-width="1.5" stroke-linecap="round" stroke-linejoin="round"/>
<path d="M70.7562 58.067C69.7169 58.067 68.7787 57.8751 67.9417 57.4915C67.1116 57.1078 66.4559 56.5777 65.9746 55.9011C65.4933 55.2175 65.2456 54.4467 65.2317 53.5887H68.2869C68.3079 53.9724 68.4299 54.3177 68.6531 54.6246C68.8833 54.9245 69.1798 55.1582 69.5425 55.3256C69.9122 55.493 70.3168 55.5767 70.7562 55.5767C71.2724 55.5767 71.7328 55.4651 72.1374 55.2419C72.5489 55.0117 72.8663 54.6943 73.0895 54.2898C73.3197 53.8852 73.4348 53.4213 73.4348 52.8982C73.4348 52.368 73.3197 51.8972 73.0895 51.4856C72.8593 51.0671 72.535 50.7427 72.1165 50.5126C71.7049 50.2754 71.2375 50.1568 70.7144 50.1568C69.5774 50.1568 68.7822 50.5823 68.3288 51.4333H65.4828L66.2989 42.707H75.6321V45.281H68.8938L68.4753 49.1105H68.6008C68.8798 48.7268 69.2949 48.4199 69.8459 48.1897C70.397 47.9526 71.0004 47.834 71.6561 47.834C72.5699 47.834 73.393 48.0467 74.1254 48.4722C74.8648 48.8977 75.4437 49.4907 75.8623 50.251C76.2808 51.0113 76.4901 51.8658 76.4901 52.8145C76.4901 53.8259 76.2494 54.7327 75.7681 55.5349C75.2868 56.3301 74.6102 56.9509 73.7382 57.3973C72.8733 57.8437 71.8793 58.067 70.7562 58.067Z" fill="#111111"/>
</g>
<defs>
<clipPath id="clip0_1474_55434">
<rect width="100" height="100" fill="white"/>
</clipPath>
</defs>
</svg>
