<svg width="30" height="28" viewBox="0 0 30 28" fill="none" xmlns="http://www.w3.org/2000/svg">
<g filter="url(#filter0_i_7217_23614)">
<rect x="1" width="28" height="28" rx="6" fill="url(#paint0_linear_7217_23614)"/>
</g>
<g filter="url(#filter1_di_7217_23614)">
<path fill-rule="evenodd" clip-rule="evenodd" d="M7 0C3.68629 0 1 2.68629 1 6V9H29V6C29 2.68629 26.3137 0 23 0H7Z" fill="url(#paint1_linear_7217_23614)"/>
</g>
<g filter="url(#filter2_d_7217_23614)">
<circle cx="8.5" cy="4.5" r="1.5" fill="#D9D9D9"/>
</g>
<g filter="url(#filter3_d_7217_23614)">
<circle cx="21.5" cy="4.5" r="1.5" fill="#D9D9D9"/>
</g>
<path d="M12.04 23.535C14.425 23.535 15.835 22.365 15.835 20.43C15.835 18.915 14.965 18.165 13.675 17.925C14.8 17.52 15.49 16.725 15.49 15.495C15.49 13.815 14.245 12.93 12.295 12.93C11.23 12.93 9.955 13.17 9.295 13.515L9.52 15.06C10.12 14.805 10.975 14.58 11.71 14.58C12.79 14.58 13.39 14.925 13.39 15.87C13.39 16.785 12.7 17.265 11.575 17.295L10.57 17.325V18.81L11.695 18.84C12.91 18.87 13.6 19.245 13.6 20.28C13.6 21.36 12.925 21.885 11.665 21.885C10.87 21.885 9.715 21.63 9.205 21.315L8.875 22.815C9.475 23.19 10.78 23.535 12.04 23.535ZM18.5838 23.445H20.7288V13.05H19.6338L16.9038 14.25V15.495L18.5838 15.18V23.445Z" fill="#222222"/>
<defs>
<filter id="filter0_i_7217_23614" x="1" y="-1" width="28" height="29" filterUnits="userSpaceOnUse" color-interpolation-filters="sRGB">
<feFlood flood-opacity="0" result="BackgroundImageFix"/>
<feBlend mode="normal" in="SourceGraphic" in2="BackgroundImageFix" result="shape"/>
<feColorMatrix in="SourceAlpha" type="matrix" values="0 0 0 0 0 0 0 0 0 0 0 0 0 0 0 0 0 0 127 0" result="hardAlpha"/>
<feOffset dy="-1"/>
<feGaussianBlur stdDeviation="0.5"/>
<feComposite in2="hardAlpha" operator="arithmetic" k2="-1" k3="1"/>
<feColorMatrix type="matrix" values="0 0 0 0 0 0 0 0 0 0 0 0 0 0 0 0 0 0 0.15 0"/>
<feBlend mode="normal" in2="shape" result="effect1_innerShadow_7217_23614"/>
</filter>
<filter id="filter1_di_7217_23614" x="0" y="0" width="30" height="11" filterUnits="userSpaceOnUse" color-interpolation-filters="sRGB">
<feFlood flood-opacity="0" result="BackgroundImageFix"/>
<feColorMatrix in="SourceAlpha" type="matrix" values="0 0 0 0 0 0 0 0 0 0 0 0 0 0 0 0 0 0 127 0" result="hardAlpha"/>
<feOffset dy="1"/>
<feGaussianBlur stdDeviation="0.5"/>
<feComposite in2="hardAlpha" operator="out"/>
<feColorMatrix type="matrix" values="0 0 0 0 0 0 0 0 0 0 0 0 0 0 0 0 0 0 0.15 0"/>
<feBlend mode="normal" in2="BackgroundImageFix" result="effect1_dropShadow_7217_23614"/>
<feBlend mode="normal" in="SourceGraphic" in2="effect1_dropShadow_7217_23614" result="shape"/>
<feColorMatrix in="SourceAlpha" type="matrix" values="0 0 0 0 0 0 0 0 0 0 0 0 0 0 0 0 0 0 127 0" result="hardAlpha"/>
<feOffset dy="1"/>
<feGaussianBlur stdDeviation="0.5"/>
<feComposite in2="hardAlpha" operator="arithmetic" k2="-1" k3="1"/>
<feColorMatrix type="matrix" values="0 0 0 0 1 0 0 0 0 1 0 0 0 0 1 0 0 0 0.2 0"/>
<feBlend mode="normal" in2="shape" result="effect2_innerShadow_7217_23614"/>
</filter>
<filter id="filter2_d_7217_23614" x="5" y="3" width="7" height="7" filterUnits="userSpaceOnUse" color-interpolation-filters="sRGB">
<feFlood flood-opacity="0" result="BackgroundImageFix"/>
<feColorMatrix in="SourceAlpha" type="matrix" values="0 0 0 0 0 0 0 0 0 0 0 0 0 0 0 0 0 0 127 0" result="hardAlpha"/>
<feOffset dy="2"/>
<feGaussianBlur stdDeviation="1"/>
<feComposite in2="hardAlpha" operator="out"/>
<feColorMatrix type="matrix" values="0 0 0 0 0 0 0 0 0 0 0 0 0 0 0 0 0 0 0.25 0"/>
<feBlend mode="normal" in2="BackgroundImageFix" result="effect1_dropShadow_7217_23614"/>
<feBlend mode="normal" in="SourceGraphic" in2="effect1_dropShadow_7217_23614" result="shape"/>
</filter>
<filter id="filter3_d_7217_23614" x="18" y="3" width="7" height="7" filterUnits="userSpaceOnUse" color-interpolation-filters="sRGB">
<feFlood flood-opacity="0" result="BackgroundImageFix"/>
<feColorMatrix in="SourceAlpha" type="matrix" values="0 0 0 0 0 0 0 0 0 0 0 0 0 0 0 0 0 0 127 0" result="hardAlpha"/>
<feOffset dy="2"/>
<feGaussianBlur stdDeviation="1"/>
<feComposite in2="hardAlpha" operator="out"/>
<feColorMatrix type="matrix" values="0 0 0 0 0 0 0 0 0 0 0 0 0 0 0 0 0 0 0.25 0"/>
<feBlend mode="normal" in2="BackgroundImageFix" result="effect1_dropShadow_7217_23614"/>
<feBlend mode="normal" in="SourceGraphic" in2="effect1_dropShadow_7217_23614" result="shape"/>
</filter>
<linearGradient id="paint0_linear_7217_23614" x1="15" y1="0" x2="15" y2="28" gradientUnits="userSpaceOnUse">
<stop stop-color="#E6E6E6"/>
<stop offset="1" stop-color="#F4F4F4"/>
</linearGradient>
<linearGradient id="paint1_linear_7217_23614" x1="1.96552" y1="5.41176" x2="29" y2="5.41176" gradientUnits="userSpaceOnUse">
<stop offset="0.00428055" stop-color="#DF3F29"/>
<stop offset="1" stop-color="#F14F39"/>
</linearGradient>
</defs>
</svg>
