<svg width="33" height="32" viewBox="0 0 33 32" fill="none" xmlns="http://www.w3.org/2000/svg">
<path d="M17.3088 18.3247H15.2078C15.1999 18.3243 15.191 18.3239 15.1811 18.3237C15.1523 18.3229 15.1144 18.3232 15.0701 18.3266C14.9845 18.3332 14.8597 18.3526 14.7271 18.4102C14.5907 18.4695 14.4408 18.5721 14.3277 18.7427C14.2143 18.9137 14.1618 19.1174 14.1618 19.3391V24C14.1618 24.2761 13.9379 24.5 13.6618 24.5H9.36765C8.46078 24.5 7.75 23.789 7.75 22.9416V13.2923C7.75 12.8186 7.97414 12.3666 8.36545 12.0691L15.2478 6.8352C15.8355 6.38827 16.6645 6.38827 17.2522 6.83519L24.1346 12.0691C24.5259 12.3666 24.75 12.8186 24.75 13.2923V22.9416C24.75 23.789 24.0392 24.5 23.1324 24.5H18.8382C18.5621 24.5 18.3382 24.2761 18.3382 24V19.3564C18.3387 19.3486 18.339 19.3398 18.3393 19.3302C18.3401 19.301 18.3397 19.2626 18.3361 19.2179C18.329 19.1313 18.3082 19.0056 18.2469 18.8727C18.1836 18.7352 18.0762 18.5893 17.9035 18.4813C17.7319 18.3738 17.5294 18.3247 17.3088 18.3247Z" fill="#FF7223" stroke="#FF7223"/>
</svg>
