<svg width="33" height="32" viewBox="0 0 33 32" fill="none" xmlns="http://www.w3.org/2000/svg">
<path d="M24.4832 12.2681C24.8137 12.5194 25 12.8983 25 13.2923V22.9416C25 23.6443 24.4079 24.25 23.6324 24.25H19.3382C19.2002 24.25 19.0882 24.1381 19.0882 24V19.3629C19.0886 19.3548 19.089 19.3461 19.0892 19.3368C19.0902 19.3 19.0897 19.2525 19.0852 19.1975C19.0766 19.0918 19.0511 18.9354 18.974 18.768C18.8938 18.594 18.7566 18.4073 18.5362 18.2693C18.3173 18.1323 18.0665 18.0747 17.8088 18.0747H15.7142C15.7059 18.0743 15.697 18.074 15.6874 18.0737C15.6514 18.0728 15.6049 18.0732 15.5509 18.0774C15.4473 18.0853 15.2932 18.1089 15.1274 18.1809C14.956 18.2555 14.7641 18.3862 14.6194 18.6045C14.4741 18.8237 14.4118 19.0776 14.4118 19.3391V24C14.4118 24.1381 14.2998 24.25 14.1618 24.25H9.86765C9.09212 24.25 8.5 23.6443 8.5 22.9416V13.2923C8.5 12.8983 8.68633 12.5194 9.01678 12.2681L15.8991 7.03419C16.3974 6.65527 17.1026 6.65527 17.6009 7.03419L24.4832 12.2681Z" stroke="#666666" stroke-width="1.5"/>
</svg>
