<svg width="28" height="28" viewBox="0 0 28 28" fill="none" xmlns="http://www.w3.org/2000/svg">
<path d="M14 23L12.975 22.0914C11.2083 20.5034 9.75 19.1323 8.6 17.9782C7.45 16.824 6.53333 15.7926 5.85 14.884C5.16667 13.9754 4.6875 13.1528 4.4125 12.4161C4.1375 11.6794 4 10.9345 4 10.1814C4 8.70805 4.50417 7.47613 5.5125 6.48568C6.52083 5.49522 7.76667 5 9.25 5C10.2 5 11.0792 5.22101 11.8875 5.66303C12.6958 6.10505 13.4 6.74352 14 7.57844C14.7 6.69441 15.4417 6.04366 16.225 5.62619C17.0083 5.20873 17.85 5 18.75 5C20.2333 5 21.4792 5.49522 22.4875 6.48568C23.4958 7.47613 24 8.70805 24 10.1814C24 10.9345 23.8625 11.6794 23.5875 12.4161C23.3125 13.1528 22.8333 13.9754 22.15 14.884C21.4667 15.7926 20.55 16.824 19.4 17.9782C18.25 19.1323 16.7917 20.5034 15.025 22.0914L14 23ZM14 21.06C15.6833 19.5375 17.0708 18.2319 18.1625 17.1432C19.2542 16.0546 20.1208 15.101 20.7625 14.2824C21.4042 13.4638 21.8542 12.7353 22.1125 12.0969C22.3708 11.4584 22.5 10.8199 22.5 10.1814C22.5 9.10096 22.15 8.21282 21.45 7.51705C20.75 6.82128 19.85 6.4734 18.75 6.4734C17.9 6.4734 17.1083 6.73124 16.375 7.24693C15.6417 7.76262 15.05 8.48704 14.6 9.42019H13.375C12.9417 8.50341 12.3583 7.78308 11.625 7.25921C10.8917 6.73533 10.1 6.4734 9.25 6.4734C8.15 6.4734 7.25 6.82128 6.55 7.51705C5.85 8.21282 5.5 9.10096 5.5 10.1814C5.5 10.8199 5.62917 11.4625 5.8875 12.1091C6.14583 12.7558 6.59583 13.4925 7.2375 14.3192C7.87917 15.146 8.75 16.0996 9.85 17.1801C10.95 18.2606 12.3333 19.5539 14 21.06Z" fill="#222222"/>
</svg>
