<svg width="28" height="28" viewBox="0 0 28 28" fill="none" xmlns="http://www.w3.org/2000/svg">
<path d="M12.975 22.0914L14 23L15.025 22.0914C16.7917 20.5034 18.25 19.1323 19.4 17.9782C20.55 16.824 21.4667 15.7926 22.15 14.884C22.8333 13.9754 23.3125 13.1528 23.5875 12.4161C23.8625 11.6794 24 10.9345 24 10.1814C24 8.70805 23.4958 7.47613 22.4875 6.48568C21.4792 5.49522 20.2333 5 18.75 5C17.85 5 17.0083 5.20873 16.225 5.62619C15.4417 6.04366 14.7 6.69441 14 7.57844C13.4 6.74352 12.6958 6.10505 11.8875 5.66303C11.0792 5.22101 10.2 5 9.25 5C7.76667 5 6.52083 5.49522 5.5125 6.48568C4.50417 7.47613 4 8.70805 4 10.1814C4 10.9345 4.1375 11.6794 4.4125 12.4161C4.6875 13.1528 5.16667 13.9754 5.85 14.884C6.53333 15.7926 7.45 16.824 8.6 17.9782C9.75 19.1323 11.2083 20.5034 12.975 22.0914Z" fill="#FF7223"/>
</svg>
