<svg width="53" height="20" viewBox="0 0 53 20" fill="none" xmlns="http://www.w3.org/2000/svg">
<path d="M14.016 17.176C14 17.448 13.96 17.736 13.896 18.04C13.848 18.344 13.696 18.592 13.44 18.784C13.248 18.944 13.032 19.04 12.792 19.072C12.552 19.104 12.312 19.088 12.072 19.024C11.848 18.976 11.632 18.896 11.424 18.784C11.216 18.656 11.048 18.504 10.92 18.328C10.376 17.656 9.872 16.968 9.408 16.264C8.96 15.544 8.504 14.824 8.04 14.104L6.024 11.056C5.752 10.624 5.464 10.144 5.16 9.616C4.856 9.072 4.544 8.568 4.224 8.104L4.152 17.272V17.488C4.152 17.744 4.104 18 4.008 18.256C3.928 18.496 3.784 18.704 3.576 18.88C3.416 19.008 3.208 19.096 2.952 19.144C2.552 19.224 2.216 19.2 1.944 19.072C1.688 18.944 1.48 18.768 1.32 18.544C1.176 18.32 1.072 18.064 1.008 17.776C0.96 17.472 0.952 17.176 0.984 16.888V16.48L1.032 14.608L1.056 11.128C1.072 10.616 1.08 10.096 1.08 9.568C1.08 9.024 1.08 8.472 1.08 7.912C1.064 7.224 1.064 6.496 1.08 5.728C1.112 4.96 1.144 4.24 1.176 3.568C1.208 3.2 1.296 2.888 1.44 2.632C1.504 2.408 1.672 2.216 1.944 2.056C2.12 1.944 2.344 1.872 2.616 1.84C2.904 1.808 3.152 1.816 3.36 1.864C3.44 1.896 3.52 1.936 3.6 1.984C3.68 2.016 3.76 2.056 3.84 2.104C3.92 2.168 3.992 2.232 4.056 2.296C4.136 2.36 4.208 2.432 4.272 2.512C4.352 2.592 4.424 2.68 4.488 2.776C4.552 2.856 4.616 2.936 4.68 3.016C4.728 3.112 4.776 3.2 4.824 3.28C4.872 3.36 4.928 3.44 4.992 3.52L5.256 3.904L10.8 12.64V11.056C10.8 10.544 10.792 10.024 10.776 9.496C10.776 8.952 10.768 8.392 10.752 7.816C10.752 7.144 10.752 6.424 10.752 5.656C10.768 4.888 10.792 4.168 10.824 3.496C10.824 3.224 10.904 2.912 11.064 2.56C11.144 2.352 11.28 2.184 11.472 2.056C11.664 1.928 11.88 1.84 12.12 1.792C12.36 1.744 12.6 1.744 12.84 1.792C13.08 1.84 13.288 1.936 13.464 2.08C13.512 2.128 13.56 2.184 13.608 2.248C13.656 2.312 13.696 2.384 13.728 2.464C13.808 2.672 13.856 2.856 13.872 3.016C13.92 3.24 13.944 3.44 13.944 3.616C13.944 5.616 13.944 7.656 13.944 9.736C13.96 11.816 13.976 13.856 13.992 15.856C13.992 16.08 14 16.304 14.016 16.528C14.032 16.736 14.032 16.952 14.016 17.176ZM32.472 0.999999C32.52 1.112 32.56 1.248 32.592 1.408C32.624 1.568 32.648 1.728 32.664 1.888C32.68 2.048 32.688 2.192 32.688 2.32C32.688 2.448 32.688 2.528 32.688 2.56V11.56C32.688 12.168 32.544 12.616 32.256 12.904C31.984 13.192 31.64 13.336 31.224 13.336C30.808 13.336 30.44 13.208 30.12 12.952C29.816 12.696 29.664 12.352 29.664 11.92L29.64 9.808L27.84 9.76C27.424 9.744 27.064 9.696 26.76 9.616C26.456 9.52 26.24 9.368 26.112 9.16C26 8.984 25.944 8.776 25.944 8.536C25.96 8.28 25.984 8.064 26.016 7.888C26.064 7.696 26.16 7.536 26.304 7.408C26.448 7.28 26.688 7.176 27.024 7.096C27.088 7.08 27.248 7.072 27.504 7.072C27.76 7.056 28.032 7.04 28.32 7.024C28.624 7.008 28.904 7 29.16 7C29.416 6.984 29.584 6.976 29.664 6.976V5.416C29.44 5.416 29.144 5.424 28.776 5.44C28.424 5.44 28.104 5.432 27.816 5.416C27.432 5.4 27.08 5.36 26.76 5.296C26.44 5.232 26.224 5.112 26.112 4.936C26.064 4.856 26.024 4.752 25.992 4.624C25.976 4.496 25.96 4.368 25.944 4.24C25.944 4.096 25.952 3.96 25.968 3.832C25.984 3.704 26 3.592 26.016 3.496C26.064 3.32 26.16 3.168 26.304 3.04C26.448 2.912 26.688 2.808 27.024 2.728C27.072 2.712 27.208 2.704 27.432 2.704C27.656 2.688 27.904 2.68 28.176 2.68C28.464 2.664 28.744 2.656 29.016 2.656C29.304 2.64 29.52 2.632 29.664 2.632C29.648 2.488 29.648 2.312 29.664 2.104C29.68 1.88 29.704 1.704 29.736 1.576C29.784 1.448 29.824 1.32 29.856 1.192C29.888 1.064 29.96 0.935999 30.072 0.808C30.216 0.648 30.408 0.536 30.648 0.472C30.904 0.392 31.176 0.368 31.464 0.399999C31.976 0.479999 32.312 0.679999 32.472 0.999999ZM32.16 16.84C32.16 16.84 32.208 16.856 32.304 16.888C32.416 16.92 32.536 16.976 32.664 17.056C32.792 17.12 32.912 17.216 33.024 17.344C33.136 17.456 33.208 17.592 33.24 17.752C33.32 18.36 33.216 18.832 32.928 19.168C32.736 19.392 32.528 19.528 32.304 19.576C32.08 19.624 31.96 19.648 31.944 19.648H19.44C18.784 19.648 18.272 19.544 17.904 19.336C17.536 19.144 17.352 18.864 17.352 18.496V15.64C17.352 15.544 17.344 15.424 17.328 15.28C17.328 15.136 17.328 14.984 17.328 14.824C17.328 14.648 17.328 14.488 17.328 14.344C17.344 14.2 17.352 14.08 17.352 13.984C17.368 13.76 17.448 13.568 17.592 13.408C17.736 13.248 17.904 13.12 18.096 13.024C18.304 12.928 18.52 12.872 18.744 12.856C18.984 12.84 19.208 12.864 19.416 12.928C19.624 12.992 19.792 13.104 19.92 13.264C20.048 13.408 20.144 13.576 20.208 13.768C20.272 13.96 20.312 14.168 20.328 14.392C20.344 14.6 20.36 14.792 20.376 14.968C20.376 15.032 20.376 15.16 20.376 15.352C20.376 15.528 20.376 15.72 20.376 15.928C20.376 16.12 20.376 16.304 20.376 16.48C20.376 16.64 20.376 16.744 20.376 16.792C20.424 16.808 20.552 16.832 20.76 16.864C20.984 16.88 21.392 16.888 21.984 16.888C22.496 16.888 22.952 16.88 23.352 16.864C23.752 16.848 23.96 16.84 23.976 16.84H32.16ZM18.912 11.584C18.432 11.584 18.04 11.536 17.736 11.44C17.432 11.328 17.16 11.112 16.92 10.792C16.616 10.392 16.464 9.944 16.464 9.448C16.464 9.112 16.456 8.712 16.44 8.248C16.44 7.768 16.44 7.288 16.44 6.808C16.44 6.312 16.44 5.832 16.44 5.368C16.44 4.888 16.448 4.48 16.464 4.144C16.48 3.728 16.48 3.296 16.464 2.848C16.464 2.384 16.568 1.968 16.776 1.6C16.888 1.392 17.048 1.224 17.256 1.096C17.48 0.951999 17.704 0.863999 17.928 0.831999C18.168 0.799999 18.392 0.831999 18.6 0.927999C18.824 1.008 19 1.152 19.128 1.36C19.416 1.84 19.552 2.352 19.536 2.896C19.536 3.424 19.536 3.968 19.536 4.528C19.536 4.72 19.536 4.984 19.536 5.32C19.536 5.656 19.536 6.008 19.536 6.376C19.552 6.728 19.56 7.072 19.56 7.408C19.576 7.744 19.6 8.008 19.632 8.2C19.648 8.392 19.696 8.536 19.776 8.632C19.856 8.712 19.952 8.768 20.064 8.8C20.176 8.832 20.304 8.848 20.448 8.848C20.592 8.848 20.736 8.848 20.88 8.848L24.72 8.992C25.136 9.008 25.488 9.144 25.776 9.4C26.064 9.64 26.184 9.968 26.136 10.384C26.088 10.752 25.928 11.048 25.656 11.272C25.4 11.48 25 11.584 24.456 11.584H18.912ZM42.2604 3.472C42.2604 3.472 42.2524 3.592 42.2364 3.832C42.2364 4.072 42.2364 4.344 42.2364 4.648C42.2364 4.952 42.2364 5.232 42.2364 5.488C42.2524 5.744 42.2604 5.888 42.2604 5.92C42.3404 6 42.4844 6.136 42.6924 6.328C42.9004 6.504 43.0764 6.656 43.2204 6.784C43.3804 6.912 43.5404 7.056 43.7004 7.216C43.8764 7.36 44.0524 7.52 44.2284 7.696C44.3404 7.808 44.4444 7.92 44.5404 8.032C44.6364 8.128 44.7244 8.216 44.8044 8.296C45.1084 8.6 45.4124 8.928 45.7164 9.28C46.0204 9.632 46.2284 9.992 46.3404 10.36C46.3884 10.504 46.3964 10.664 46.3644 10.84C46.3324 11.016 46.2284 11.168 46.0524 11.296C45.7804 11.456 45.4924 11.536 45.1884 11.536C44.8364 11.536 44.5004 11.464 44.1804 11.32C43.8604 11.176 43.6044 11.032 43.4124 10.888C43.1084 10.664 42.8284 10.432 42.5724 10.192C42.3164 9.936 42.0604 9.68 41.8044 9.424C41.6284 9.248 41.4284 9.048 41.2044 8.824C40.9804 8.584 40.7564 8.376 40.5324 8.2L39.8844 8.848C39.7724 8.96 39.6604 9.072 39.5484 9.184C39.4364 9.28 39.3324 9.384 39.2364 9.496C39.0284 9.72 38.8124 9.952 38.5884 10.192C38.3644 10.416 38.1084 10.632 37.8204 10.84C37.1644 11.32 36.5484 11.56 35.9724 11.56C35.8924 11.56 35.8204 11.56 35.7564 11.56C35.7084 11.56 35.6444 11.544 35.5644 11.512C35.2124 11.432 34.9804 11.288 34.8684 11.08C34.7564 10.904 34.7164 10.704 34.7484 10.48C34.7964 10.256 34.8684 10.056 34.9644 9.88C35.0924 9.704 35.2364 9.536 35.3964 9.376C35.5564 9.2 35.7164 9.024 35.8764 8.848C36.0204 8.688 36.2444 8.464 36.5484 8.176C36.8684 7.872 37.1884 7.568 37.5084 7.264C37.8284 6.944 38.1244 6.656 38.3964 6.4C38.6684 6.144 38.8364 5.984 38.9004 5.92V3.472H37.3644C37.1724 3.472 36.9484 3.48 36.6924 3.496C36.4364 3.496 36.1804 3.48 35.9244 3.448C35.6844 3.416 35.4604 3.352 35.2524 3.256C35.0444 3.144 34.8924 2.968 34.7964 2.728C34.7164 2.552 34.6604 2.352 34.6284 2.128C34.6124 1.904 34.6284 1.696 34.6764 1.504C34.7404 1.28 34.8844 1.128 35.1084 1.048C35.3324 0.952 35.5484 0.888 35.7564 0.855999C35.7884 0.855999 35.9164 0.855999 36.1404 0.855999C36.3804 0.855999 36.6364 0.855999 36.9084 0.855999C37.1804 0.855999 37.4364 0.855999 37.6764 0.855999C37.9164 0.855999 38.0604 0.847999 38.1084 0.831999H43.7244C44.3644 0.831999 44.9004 0.871999 45.3324 0.951999C45.7804 1.032 46.1404 1.232 46.4124 1.552C46.4924 1.648 46.5404 1.776 46.5564 1.936C46.5884 2.096 46.5884 2.264 46.5564 2.44C46.5404 2.6 46.4924 2.752 46.4124 2.896C46.3484 3.04 46.2524 3.144 46.1244 3.208C45.9964 3.256 45.8444 3.312 45.6684 3.376C45.4924 3.424 45.3404 3.456 45.2124 3.472C44.9884 3.488 44.7564 3.496 44.5164 3.496C44.2924 3.48 44.0684 3.472 43.8444 3.472H42.2604ZM51.2124 17.056C51.2124 17.056 51.2604 17.072 51.3564 17.104C51.4684 17.136 51.5884 17.192 51.7164 17.272C51.8444 17.336 51.9644 17.432 52.0764 17.56C52.1884 17.672 52.2604 17.808 52.2924 17.968C52.3724 18.576 52.2684 19.048 51.9804 19.384C51.7884 19.608 51.5804 19.744 51.3564 19.792C51.1324 19.84 51.0124 19.864 50.9964 19.864H38.9724C38.3164 19.864 37.8044 19.76 37.4364 19.552C37.0684 19.36 36.8844 19.08 36.8844 18.712V15.376C36.8844 15.28 36.8764 15.16 36.8604 15.016C36.8604 14.872 36.8604 14.72 36.8604 14.56C36.8604 14.384 36.8604 14.224 36.8604 14.08C36.8764 13.936 36.8844 13.816 36.8844 13.72C36.9164 13.384 37.0764 13.112 37.3644 12.904C37.6524 12.696 37.9804 12.592 38.3484 12.592C38.4284 12.592 38.5244 12.6 38.6364 12.616C38.7644 12.616 38.8684 12.632 38.9484 12.664C39.1564 12.728 39.3244 12.84 39.4524 13C39.5804 13.144 39.6764 13.312 39.7404 13.504C39.8044 13.696 39.8444 13.904 39.8604 14.128C39.8764 14.336 39.8924 14.528 39.9084 14.704C39.9084 14.768 39.9084 14.92 39.9084 15.16C39.9084 15.384 39.9084 15.632 39.9084 15.904C39.9084 16.16 39.9084 16.4 39.9084 16.624C39.9084 16.832 39.9084 16.96 39.9084 17.008C39.9564 17.024 40.0844 17.048 40.2924 17.08C40.5164 17.096 40.9244 17.104 41.5164 17.104C42.0284 17.104 42.4844 17.096 42.8844 17.08C43.2844 17.064 43.4924 17.056 43.5084 17.056H51.2124ZM47.9724 7.768C47.5084 7.736 47.0924 7.712 46.7244 7.696C46.3564 7.664 46.0684 7.488 45.8604 7.168C45.7644 7.008 45.7164 6.808 45.7164 6.568C45.7164 6.328 45.7324 6.12 45.7644 5.944C45.8124 5.768 45.9004 5.624 46.0284 5.512C46.1564 5.384 46.3804 5.28 46.7004 5.2C46.7644 5.184 46.9084 5.176 47.1324 5.176C47.3564 5.16 47.5964 5.144 47.8524 5.128C48.1244 5.112 48.3724 5.104 48.5964 5.104C48.8204 5.088 48.9644 5.08 49.0284 5.08V2.536C49.0124 2.36 49.0044 2.184 49.0044 2.008C49.0204 1.832 49.0524 1.656 49.1004 1.48C49.1324 1.352 49.1644 1.232 49.1964 1.12C49.2284 1.008 49.3004 0.887999 49.4124 0.759999C49.5404 0.599999 49.7164 0.487999 49.9404 0.423999C50.1804 0.359999 50.4364 0.343999 50.7084 0.375999C51.2204 0.455999 51.5484 0.655999 51.6924 0.975999C51.7884 1.168 51.8444 1.408 51.8604 1.696C51.8924 1.968 51.9084 2.136 51.9084 2.2V11.944H51.8844C51.8844 11.96 51.8764 12.016 51.8604 12.112C51.8444 12.208 51.8124 12.328 51.7644 12.472C51.7164 12.6 51.6444 12.736 51.5484 12.88C51.4524 13.024 51.3244 13.144 51.1644 13.24C50.9404 13.368 50.7164 13.432 50.4924 13.432C50.2204 13.432 49.9564 13.344 49.7004 13.168C49.5084 13.04 49.3724 12.88 49.2924 12.688C49.1964 12.512 49.1324 12.336 49.1004 12.16C49.0684 11.984 49.0444 11.808 49.0284 11.632V7.768H47.9724Z" fill="#222222"/>
</svg>
