<svg width="20" height="20" viewBox="0 0 20 20" fill="none" xmlns="http://www.w3.org/2000/svg">
<g filter="url(#filter0_ii_7217_23646)">
<path d="M8.35857 16.8276C8.35857 18.5797 6.93517 20 5.17932 20C3.42347 20 2.00007 18.5797 2.00007 16.8276C2.00007 15.0755 3.42347 13.6552 5.17932 13.6552C6.93517 13.6552 8.35857 15.0755 8.35857 16.8276Z" fill="#FF8A00"/>
<path d="M18 14.069C18 15.821 16.5766 17.2414 14.8207 17.2414C13.0649 17.2414 11.6415 15.821 11.6415 14.069C11.6415 12.3169 13.0649 10.8966 14.8207 10.8966C16.5766 10.8966 18 12.3169 18 14.069Z" fill="#FF8A00"/>
<path d="M7.25275 4.82759H8.35857V16.6897H7.25275V4.82759Z" fill="#FF8A00"/>
<path d="M16.8942 2.06897H18V13.931H16.8942V2.06897Z" fill="#FF8A00"/>
<path d="M7.25275 2.89655L18 0V4.41379L7.25275 7.31034V2.89655Z" fill="#FF8A00"/>
</g>
<defs>
<filter id="filter0_ii_7217_23646" x="2.00006" y="-0.5" width="15.9999" height="21" filterUnits="userSpaceOnUse" color-interpolation-filters="sRGB">
<feFlood flood-opacity="0" result="BackgroundImageFix"/>
<feBlend mode="normal" in="SourceGraphic" in2="BackgroundImageFix" result="shape"/>
<feColorMatrix in="SourceAlpha" type="matrix" values="0 0 0 0 0 0 0 0 0 0 0 0 0 0 0 0 0 0 127 0" result="hardAlpha"/>
<feOffset dy="-0.5"/>
<feGaussianBlur stdDeviation="0.25"/>
<feComposite in2="hardAlpha" operator="arithmetic" k2="-1" k3="1"/>
<feColorMatrix type="matrix" values="0 0 0 0 0.804167 0 0 0 0 0.24125 0 0 0 0 0 0 0 0 0.6 0"/>
<feBlend mode="normal" in2="shape" result="effect1_innerShadow_7217_23646"/>
<feColorMatrix in="SourceAlpha" type="matrix" values="0 0 0 0 0 0 0 0 0 0 0 0 0 0 0 0 0 0 127 0" result="hardAlpha"/>
<feOffset dy="0.5"/>
<feGaussianBlur stdDeviation="0.25"/>
<feComposite in2="hardAlpha" operator="arithmetic" k2="-1" k3="1"/>
<feColorMatrix type="matrix" values="0 0 0 0 1 0 0 0 0 1 0 0 0 0 1 0 0 0 0.4 0"/>
<feBlend mode="normal" in2="effect1_innerShadow_7217_23646" result="effect2_innerShadow_7217_23646"/>
</filter>
</defs>
</svg>
