<svg width="24" height="24" viewBox="0 0 24 24" fill="none" xmlns="http://www.w3.org/2000/svg">
<circle cx="9.5" cy="6.25" r="2.5" stroke="#666666" stroke-width="1.5"/>
<mask id="path-2-inside-1_101_799" fill="white">
<path fill-rule="evenodd" clip-rule="evenodd" d="M6.61111 10.7001C4.20254 10.7001 2.25 12.6526 2.25 15.0612C2.25 15.4754 2.58579 15.8112 3 15.8112C3.41421 15.8112 3.75 15.4754 3.75 15.0612C3.75 13.481 5.03096 12.2001 6.61111 12.2001H12.3889C13.9473 12.2001 15.2147 13.446 15.2493 14.9961H16.7495C16.7147 12.6175 14.7757 10.7001 12.3889 10.7001H6.61111Z"/>
</mask>
<path fill-rule="evenodd" clip-rule="evenodd" d="M6.61111 10.7001C4.20254 10.7001 2.25 12.6526 2.25 15.0612C2.25 15.4754 2.58579 15.8112 3 15.8112C3.41421 15.8112 3.75 15.4754 3.75 15.0612C3.75 13.481 5.03096 12.2001 6.61111 12.2001H12.3889C13.9473 12.2001 15.2147 13.446 15.2493 14.9961H16.7495C16.7147 12.6175 14.7757 10.7001 12.3889 10.7001H6.61111Z" fill="#222222"/>
<path d="M15.2493 14.9961L13.7496 15.0296L13.7824 16.4961H15.2493V14.9961ZM16.7495 14.9961V16.4961H18.2716L18.2494 14.9742L16.7495 14.9961ZM3.75 15.0612C3.75 13.481 5.03096 12.2001 6.61111 12.2001V9.20007C3.37411 9.20007 0.75 11.8242 0.75 15.0612H3.75ZM3 14.3112C3.41421 14.3112 3.75 14.647 3.75 15.0612H0.75C0.75 16.3038 1.75736 17.3112 3 17.3112V14.3112ZM2.25 15.0612C2.25 14.647 2.58579 14.3112 3 14.3112V17.3112C4.24264 17.3112 5.25 16.3038 5.25 15.0612H2.25ZM6.61111 10.7001C4.20254 10.7001 2.25 12.6526 2.25 15.0612H5.25C5.25 14.3095 5.85939 13.7001 6.61111 13.7001V10.7001ZM12.3889 10.7001H6.61111V13.7001H12.3889V10.7001ZM16.7489 14.9626C16.6961 12.5992 14.7645 10.7001 12.3889 10.7001V13.7001C13.1301 13.7001 13.7332 14.2928 13.7496 15.0296L16.7489 14.9626ZM15.2493 16.4961H16.7495V13.4961H15.2493V16.4961ZM12.3889 12.2001C13.9547 12.2001 15.2269 13.458 15.2497 15.018L18.2494 14.9742C18.2026 11.777 15.5968 9.20007 12.3889 9.20007V12.2001ZM6.61111 12.2001H12.3889V9.20007H6.61111V12.2001Z" fill="#666666" mask="url(#path-2-inside-1_101_799)"/>
<path d="M12.75 16.3499L21.3145 16.3498L18.5121 14.061" stroke="#666666" stroke-width="1.5" stroke-linecap="round" stroke-linejoin="round"/>
<path d="M21.2806 18.8815H12.75L15.5524 21.1703" stroke="#666666" stroke-width="1.5" stroke-linecap="round" stroke-linejoin="round"/>
</svg>
