<svg width="24" height="24" viewBox="0 0 24 24" fill="none" xmlns="http://www.w3.org/2000/svg">
<path d="M3.98092 11.9084L4.61514 11.508C4.6047 11.4915 4.59361 11.4754 4.58191 11.4597L3.98092 11.9084ZM12 6.10323L11.3868 6.53506C11.5273 6.73455 11.756 6.85323 12 6.85323C12.244 6.85323 12.4727 6.73455 12.6132 6.53506L12 6.10323ZM19.7953 12.1867L19.228 11.6961C19.2008 11.7275 19.1762 11.7612 19.1546 11.7968L19.7953 12.1867ZM16.1064 16.3891L16.6209 16.9347L16.6209 16.9347L16.1064 16.3891ZM12.0002 20.2L11.4977 20.7568C11.7828 21.014 12.2161 21.0144 12.5016 20.7577L12.0002 20.2ZM7.98447 16.4713L7.47151 17.0185L7.47151 17.0185L7.98447 16.4713ZM4.58191 11.4597C4.05919 10.7595 3.75 9.89195 3.75 8.95H2.25C2.25 10.2263 2.67037 11.4066 3.37993 12.357L4.58191 11.4597ZM3.75 8.95C3.75 6.6304 5.6304 4.75 7.95 4.75V3.25C4.80198 3.25 2.25 5.80198 2.25 8.95H3.75ZM7.95 4.75C9.36987 4.75 10.6254 5.45386 11.3868 6.53506L12.6132 5.67141C11.5829 4.20835 9.87842 3.25 7.95 3.25V4.75ZM12.6132 6.53506C13.3746 5.45386 14.6301 4.75 16.05 4.75V3.25C14.1216 3.25 12.4171 4.20835 11.3868 5.67141L12.6132 6.53506ZM16.05 4.75C18.3696 4.75 20.25 6.6304 20.25 8.95H21.75C21.75 5.80198 19.198 3.25 16.05 3.25V4.75ZM20.25 8.95C20.25 10.0005 19.8653 10.9594 19.228 11.6961L20.3625 12.6774C21.2265 11.6785 21.75 10.3744 21.75 8.95H20.25ZM19.1546 11.7968C19.1085 11.8725 18.1419 13.4387 15.5918 15.8434L16.6209 16.9347C19.2712 14.4355 20.3219 12.764 20.4359 12.5767L19.1546 11.7968ZM15.5918 15.8434C14.2369 17.1211 13.2126 18.0718 12.5275 18.7025C12.1849 19.0179 11.9272 19.2534 11.7554 19.4097C11.6695 19.4878 11.6051 19.5462 11.5622 19.585C11.5408 19.6043 11.5248 19.6188 11.5142 19.6283C11.509 19.6331 11.505 19.6366 11.5024 19.639C11.5011 19.6401 11.5002 19.641 11.4996 19.6415C11.4993 19.6418 11.4991 19.642 11.4989 19.6421C11.4989 19.6422 11.4988 19.6422 11.4988 19.6422C11.4988 19.6422 11.4988 19.6423 11.4988 19.6423C11.4988 19.6423 11.4988 19.6422 12.0002 20.2C12.5016 20.7577 12.5016 20.7577 12.5017 20.7577C12.5017 20.7577 12.5017 20.7576 12.5017 20.7576C12.5018 20.7576 12.5019 20.7575 12.502 20.7574C12.5022 20.7572 12.5025 20.757 12.5029 20.7566C12.5036 20.7559 12.5047 20.755 12.5061 20.7537C12.509 20.7511 12.5132 20.7473 12.5188 20.7423C12.5299 20.7323 12.5464 20.7173 12.5684 20.6975C12.6123 20.6577 12.6778 20.5984 12.7649 20.5192C12.9389 20.3609 13.1988 20.1234 13.5435 19.806C14.233 19.1712 15.2617 18.2164 16.6209 16.9347L15.5918 15.8434ZM12.0002 20.2C12.5027 19.6432 12.5027 19.6432 12.5027 19.6432C12.5027 19.6432 12.5027 19.6432 12.5027 19.6432C12.5027 19.6432 12.5026 19.6432 12.5026 19.6431C12.5025 19.643 12.5024 19.6429 12.5021 19.6427C12.5017 19.6423 12.501 19.6417 12.5001 19.6409C12.4982 19.6392 12.4953 19.6365 12.4913 19.6329C12.4834 19.6257 12.4712 19.6147 12.4545 19.5995C12.4211 19.5692 12.3699 19.5225 12.2989 19.4576C12.1568 19.3279 11.9359 19.1252 11.6215 18.835C10.9927 18.2545 9.99022 17.3237 8.49742 15.9242L7.47151 17.0185C8.96659 18.4201 9.97195 19.3536 10.604 19.9372C10.9201 20.2289 11.1429 20.4333 11.287 20.5649C11.359 20.6308 11.4114 20.6784 11.4459 20.7098C11.4632 20.7255 11.476 20.7371 11.4845 20.7448C11.4888 20.7487 11.492 20.7516 11.4942 20.7536C11.4953 20.7546 11.4962 20.7554 11.4967 20.7559C11.497 20.7562 11.4973 20.7564 11.4974 20.7565C11.4975 20.7566 11.4976 20.7567 11.4976 20.7567C11.4977 20.7567 11.4977 20.7567 11.4977 20.7568C11.4977 20.7568 11.4977 20.7568 12.0002 20.2ZM8.49742 15.9242C5.97265 13.5572 4.85453 11.8873 4.61514 11.508L3.34669 12.3087C3.65133 12.7913 4.85001 14.5608 7.47151 17.0185L8.49742 15.9242Z" fill="#666666"/>
</svg>
