<svg width="24" height="24" viewBox="0 0 24 24" fill="none" xmlns="http://www.w3.org/2000/svg">
<path d="M18.4706 10.2353C18.4706 6.66169 15.5736 3.76471 12 3.76471C8.42639 3.76471 5.52941 6.66169 5.52941 10.2353V13.1765C5.52941 13.8262 5.00269 14.3529 4.35294 14.3529H3.17647C2.52672 14.3529 2 13.8262 2 13.1765V10.2353C2 9.58555 2.52672 9.05882 3.17647 9.05882H3.8481C4.41896 5.06789 7.85121 2 12 2C16.1488 2 19.581 5.06789 20.1519 9.05882H20.8235C21.4733 9.05882 22 9.58555 22 10.2353V13.1765C22 13.8262 21.4733 14.3529 20.8235 14.3529H20.2353V14.9412C20.2353 19.4894 16.5482 23.1765 12 23.1765V23.1745C11.9805 23.1758 11.9609 23.1765 11.9411 23.1765C11.4538 23.1765 11.0588 22.7814 11.0588 22.2941C11.0588 21.8068 11.4538 21.4118 11.9411 21.4118C11.9609 21.4118 11.9805 21.4124 12 21.4137V21.4118C15.5736 21.4118 18.4706 18.5148 18.4706 14.9412V10.2353Z" fill="#666666"/>
<path d="M9.64706 13.1765C9.32219 13.1765 9.05882 13.4398 9.05882 13.7647C9.05882 14.1947 9.22461 14.7868 9.6933 15.275C10.1763 15.7781 10.9285 16.1176 12 16.1176C13.0715 16.1176 13.8237 15.7781 14.3067 15.275C14.7754 14.7868 14.9412 14.1947 14.9412 13.7647C14.9412 13.4398 14.6778 13.1765 14.3529 13.1765H9.64706Z" fill="#666666"/>
</svg>
