<svg width="60" height="60" viewBox="0 0 60 60" fill="none" xmlns="http://www.w3.org/2000/svg">
<path fill-rule="evenodd" clip-rule="evenodd" d="M1.99996 24.7326V34.4944C1.99996 47.4747 12.5226 57.9974 25.503 57.9974C34.5103 57.9974 42.3342 52.9305 46.2798 45.4915L47.115 45.3691C51.1747 44.7743 54.784 42.4662 57.0269 39.0305C58.129 37.3423 58.3068 35.2126 57.4997 33.3651L57.3938 33.1227C56.5644 31.2239 54.9765 29.76 53.0167 29.0873L52.7938 29.0108C52.0413 28.7526 51.268 28.5594 50.4825 28.4336L49.006 28.1971V24.7326C49.006 24.7323 49.006 24.7319 49.006 24.7316C49.0037 21.5369 38.4819 18.9473 25.503 18.9473C12.524 18.9473 2.00226 21.5369 1.99996 24.7316C1.99996 24.7319 1.99996 24.7323 1.99996 24.7326ZM49.006 34.4944C49.006 36.6295 48.7213 38.6981 48.1878 40.6643L49.3021 40.2984C50.3567 39.9521 51.3715 39.3001 52.1508 38.5097C53.7041 36.9342 53.6299 34.4575 52.0568 32.9018L51.8068 32.6546C51.22 32.0743 50.4743 31.6811 49.6641 31.5246L49.006 31.3975V34.4944Z" fill="#344792"/>
<ellipse rx="19.8775" ry="3.9755" transform="matrix(-1 0 0 1 25.2853 25.1943)" fill="white"/>
<path d="M13.9563 42.0563V36.7422H18.1889V38.0125H15.6613V38.7175H17.8041V39.9347H15.6613V40.7594H18.295V42.0497H13.9563V42.0563Z" fill="white"/>
<path d="M19.0918 42.0563V36.7422H21.1484C21.6725 36.7422 22.0572 36.7621 22.316 36.8087C22.5747 36.8553 22.7936 36.9351 22.986 37.0415C23.3509 37.2543 23.6295 37.5603 23.8153 37.9527C24.001 38.3451 24.0939 38.8239 24.0939 39.3959C24.0939 39.9945 23.9811 40.5066 23.7489 40.9123C23.5234 41.3247 23.185 41.624 22.7339 41.8235C22.5614 41.9033 22.3425 41.9565 22.0838 41.9898C21.825 42.0231 21.4071 42.043 20.8366 42.043H19.0918V42.0563ZM20.7901 40.7128H21.2479C21.6725 40.7128 21.9644 40.6197 22.1302 40.4268C22.2961 40.2406 22.3757 39.9014 22.3757 39.4092C22.3757 38.9171 22.2894 38.5912 22.1236 38.3916C21.9577 38.1921 21.6725 38.0923 21.2678 38.0923H20.7901V40.7128Z" fill="white"/>
<path d="M24.8975 42.0563V36.7422H26.6356V42.0563H24.8975Z" fill="white"/>
<path d="M29.3406 42.0563V40.0876L27.3901 36.7422H29.2742L30.1831 38.5512L31.1052 36.7422H32.9429L31.0389 40.0876V42.0563H29.3406Z" fill="white"/>
<path d="M32.1328 42.0563L33.997 36.7422H35.7219L37.586 42.0563H35.901L35.702 41.3513H34.0169L33.8112 42.0563H32.1394H32.1328ZM34.3221 40.2406H35.3902L34.8594 38.3983L34.3221 40.2406Z" fill="white"/>
<path d="M36 14C36 19.5228 31.5228 24 26 24C20.4772 24 16 19.5228 16 14C16 8.47715 20.4772 4 26 4C31.5228 4 36 8.47715 36 14Z" fill="#4C3D3B"/>
<path d="M27 14C27 13.4477 26.5523 13 26 13C25.4477 13 25 13.4477 25 14C25 14.5523 25.4477 15 26 15C26.5523 15 27 14.5523 27 14Z" fill="#4C3D3B"/>
<path fill-rule="evenodd" clip-rule="evenodd" d="M26.4964 8C26.1233 8 25.821 8.3024 25.821 8.67542V13.8085L22.1978 17.4316C21.9341 17.6954 21.9341 18.1231 22.1978 18.3868C22.4616 18.6506 22.8893 18.6506 23.153 18.3868L26.9738 14.5661C27.1038 14.4361 27.1697 14.2663 27.1716 14.0959C27.1717 14.0902 27.1718 14.0845 27.1718 14.0788V8.67542C27.1718 8.3024 26.8694 8 26.4964 8Z" fill="white"/>
</svg>
