<svg width="28" height="28" viewBox="0 0 28 28" fill="none" xmlns="http://www.w3.org/2000/svg">
<path d="M26.4167 18.9999C26.4167 18.5857 26.0809 18.2499 25.6667 18.2499C25.2525 18.2499 24.9167 18.5857 24.9167 18.9999H26.4167ZM3.08337 18.9999C3.08337 18.5857 2.74759 18.2499 2.33337 18.2499C1.91916 18.2499 1.58337 18.5857 1.58337 18.9999H3.08337ZM14.75 2.33325C14.75 1.91904 14.4143 1.58325 14 1.58325C13.5858 1.58325 13.25 1.91904 13.25 2.33325H14.75ZM14 18.9999L13.4697 19.5302C13.7626 19.8231 14.2375 19.8231 14.5304 19.5302L14 18.9999ZM11.197 15.1363C10.9041 14.8434 10.4293 14.8434 10.1364 15.1363C9.84348 15.4291 9.84348 15.904 10.1364 16.1969L11.197 15.1363ZM17.8637 16.1969C18.1566 15.904 18.1566 15.4291 17.8637 15.1363C17.5708 14.8434 17.0959 14.8434 16.803 15.1363L17.8637 16.1969ZM22.3334 24.9166H5.66671V26.4166H22.3334V24.9166ZM26.4167 22.3333V18.9999H24.9167V22.3333H26.4167ZM3.08337 22.3333V18.9999H1.58337V22.3333H3.08337ZM5.66671 24.9166C4.23997 24.9166 3.08337 23.76 3.08337 22.3333H1.58337C1.58337 24.5884 3.41154 26.4166 5.66671 26.4166V24.9166ZM22.3334 26.4166C24.5885 26.4166 26.4167 24.5884 26.4167 22.3333H24.9167C24.9167 23.76 23.7601 24.9166 22.3334 24.9166V26.4166ZM13.25 2.33325V18.9999H14.75V2.33325H13.25ZM14.5304 18.4696L11.197 15.1363L10.1364 16.1969L13.4697 19.5302L14.5304 18.4696ZM14.5304 19.5302L17.8637 16.1969L16.803 15.1363L13.4697 18.4696L14.5304 19.5302Z" fill="#111111"/>
</svg>
