<svg width="100" height="100" viewBox="0 0 100 100" fill="none" xmlns="http://www.w3.org/2000/svg">
<path d="M78 29.0996H34C32.8954 29.0996 32 29.995 32 31.0996V82.0996C32 83.2042 32.8954 84.0996 34 84.0996H78C79.1046 84.0996 80 83.2042 80 82.0996V31.0996C80 29.995 79.1046 29.0996 78 29.0996Z" fill="#EEEAE2"/>
<path d="M72 21H28C26.8954 21 26 21.8954 26 23V79C26 80.1046 26.8954 81 28 81H72C73.1046 81 74 80.1046 74 79V23C74 21.8954 73.1046 21 72 21Z" fill="#2A47BF"/>
<rect x="37.3086" y="58" width="25.2047" height="2.52047" rx="1.26024" fill="white"/>
<rect x="44.3086" y="63.6719" width="11.3421" height="2.52047" rx="1.26024" fill="white"/>
<circle cx="48.1043" cy="41.9539" r="10.1043" stroke="white" stroke-width="2"/>
<path d="M54.666 48.9766L56.4178 46.5654L62.1028 50.6958C62.7686 51.1796 62.9162 52.1115 62.4325 52.7773C61.9487 53.4431 61.0168 53.5907 60.351 53.1069L54.666 48.9766Z" fill="white"/>
<path d="M53.0822 43.9845C53.9919 41.8973 52.4924 39.2294 49.7327 38.0255C46.9731 36.8217 43.9985 37.5379 43.0887 39.6251C42.1789 41.7123 43.6785 44.3802 46.4381 45.584C49.1977 46.7878 52.1724 46.0717 53.0822 43.9845Z" fill="white"/>
<path d="M43.4297 39.5215C43.4297 39.5215 45.8378 42.2062 47.7187 41.9665C49.5996 41.7268 50.618 42.4698 52.7625 44.5313" stroke="#2A47BF" stroke-linecap="round" stroke-linejoin="round"/>
<circle cx="74" cy="72" r="13" fill="#4C3D3B" stroke="white" stroke-width="2"/>
<path d="M77.75 68.25L70.25 75.75" stroke="white" stroke-width="2" stroke-linecap="round"/>
<path d="M70.25 68.25L77.75 75.75" stroke="white" stroke-width="2" stroke-linecap="round"/>
</svg>
