<svg width="100" height="100" viewBox="0 0 100 100" fill="none" xmlns="http://www.w3.org/2000/svg">
<path d="M19.0063 72.2927L34.8758 30.3196L67.4701 63.2057C55.4984 68.254 30.8992 78.7135 28.0933 79.6488C22.9008 81.3796 20.7371 81.3796 19.0063 79.6488C17.6216 78.2641 17.7082 75.7544 19.0063 72.2927Z" fill="#2A47BF"/>
<path d="M28.0938 79.6486L60.1144 55.4167L68.336 63.2056L28.0938 79.6486Z" fill="#2A47BF"/>
<ellipse cx="53.0279" cy="45.3023" rx="23.9424" ry="10.3851" transform="rotate(45 53.0279 45.3023)" fill="#EEEAE2"/>
<path d="M60.8021 22C63.1099 25.7502 66.7736 34.4621 62.9657 39.3085C58.2059 45.3664 50.7901 43.2476 52.581 39.3085C54.745 34.5486 65.5619 30.6542 67.2928 40.6066C69.013 50.4971 61.5233 53.4437 58.6386 53.588" stroke="#4C3D3B" stroke-width="3" stroke-linecap="round"/>
<path d="M41.6013 23.0367C41.3054 22.326 41.8897 21.5616 42.6531 21.6606L46.6503 22.1794C47.4137 22.2785 47.7836 23.1668 47.3161 23.7784L44.8682 26.9807C44.4007 27.5922 43.4465 27.4684 43.1506 26.7577L41.6013 23.0367Z" fill="#2A47BF"/>
<path d="M75.9955 50.8377C75.3185 50.4714 75.2919 49.5095 75.9476 49.1064L79.3813 46.9953C80.037 46.5921 80.8834 47.05 80.9046 47.8195L81.0161 51.8486C81.0374 52.6182 80.2176 53.1221 79.5406 52.7558L75.9955 50.8377Z" fill="#2A47BF"/>
<path d="M86 72C86 79.1797 80.1797 85 73 85C65.8203 85 60 79.1797 60 72C60 64.8203 65.8203 59 73 59C80.1797 59 86 64.8203 86 72Z" fill="#4C3D3B" stroke="white" stroke-width="2" stroke-linecap="round" stroke-linejoin="round"/>
<circle cx="73" cy="77.5834" r="1.25" fill="white"/>
<path d="M73 65.3334V73.3334" stroke="white" stroke-width="2" stroke-linecap="round" stroke-linejoin="round"/>
<path d="M73.2363 27.3815C72.5533 25.7932 73.7744 23.7209 75.9638 22.7528C78.1532 21.7848 80.4817 22.2875 81.1647 23.8758C81.8477 25.4641 80.6265 27.5364 78.4372 28.5044C76.2478 29.4725 73.9193 28.9697 73.2363 27.3815Z" fill="#4C3D3B"/>
<path d="M81.0908 23.7021C81.0908 23.7021 79.1707 25.8719 77.6709 25.6782C76.1712 25.4845 75.3592 26.085 73.6493 27.7511" stroke="white" stroke-width="0.4" stroke-linecap="round" stroke-linejoin="round"/>
<path d="M39.653 40.9512C39.9952 39.2565 42.1786 38.2474 44.5298 38.6972C46.881 39.1471 48.5096 40.8856 48.1674 42.5803C47.8252 44.2749 45.6418 45.2841 43.2906 44.8342C40.9394 44.3844 39.3108 42.6459 39.653 40.9512Z" fill="#4C3D3B"/>
<path d="M48.2051 42.395C48.2051 42.395 45.3915 43.0865 44.2684 42.0737C43.1454 41.061 42.136 41.0927 39.7818 41.4897" stroke="white" stroke-width="0.4" stroke-linecap="round" stroke-linejoin="round"/>
</svg>
