<svg width="32" height="35" viewBox="0 0 32 35" fill="none" xmlns="http://www.w3.org/2000/svg">
<path d="M24.836 18.3278C24.822 15.7962 25.9815 13.8854 28.3284 12.4782C27.0153 10.6226 25.0315 9.60169 22.4122 9.40165C19.9326 9.2085 17.2224 10.8295 16.2306 10.8295C15.1828 10.8295 12.78 9.47063 10.8941 9.47063C6.99654 9.53271 2.85449 12.5403 2.85449 18.6589C2.85449 20.4662 3.18977 22.3333 3.86032 24.2601C4.75438 26.7917 7.98141 33 11.3481 32.8965C13.1083 32.8551 14.3516 31.6618 16.6427 31.6618C18.8639 31.6618 20.0164 32.8965 21.9791 32.8965C25.3738 32.8482 28.2935 27.2056 29.1457 24.6671C24.5915 22.5494 24.836 18.4588 24.836 18.3278V18.3278ZM20.8825 7.00111C22.7894 4.76613 22.6148 2.7312 22.5589 2C20.8755 2.09657 18.9267 3.13129 17.8161 4.40743C16.5938 5.77325 15.8743 7.46328 16.028 9.36716C17.8511 9.50512 19.5135 8.58077 20.8825 7.00111V7.00111Z" fill="black"/>
</svg>
