<svg width="36" height="36" viewBox="0 0 36 36" fill="none" xmlns="http://www.w3.org/2000/svg">
<rect x="2.00012" y="2.00098" width="32" height="32" rx="16" fill="#5C5C5C"/>
<path d="M21.8382 8.00098H14.1625C10.7589 8.00098 8.00037 10.7595 8.00037 14.1641V21.8398C8.00037 25.2425 10.7589 28.001 14.1625 28.001H21.8382C25.2419 28.001 28.0004 25.2425 28.0004 21.8398V14.1641C28.0004 10.7604 25.2419 8.00098 21.8382 8.00098ZM26.0802 21.1028C26.0802 23.8536 23.8501 26.0818 21.1012 26.0818H14.8985C12.1478 26.0818 9.91856 23.8536 9.91856 21.1028V14.9001C9.91856 12.1513 12.1478 9.9211 14.8985 9.9211H21.1012C23.8501 9.9211 26.0802 12.1513 26.0802 14.9001V21.1028Z" fill="white"/>
<path d="M18.0009 12.8018C15.1285 12.8018 12.8004 15.1291 12.8004 18.0018C12.8004 20.8744 15.1285 23.2018 18.0009 23.2018C20.8733 23.2018 23.2004 20.8725 23.2004 18.0018C23.2004 15.131 20.8724 12.8018 18.0009 12.8018ZM18.0009 21.1309C16.2715 21.1309 14.872 19.7294 14.872 18.0018C14.872 16.2741 16.2715 14.8726 18.0009 14.8726C19.7303 14.8726 21.1288 16.2722 21.1288 18.0018C21.1288 19.7313 19.7283 21.1309 18.0009 21.1309Z" fill="white"/>
<path d="M23.9999 12.4006C23.9999 13.0631 23.4617 13.6002 22.799 13.6002C22.1363 13.6002 21.5999 13.0631 21.5999 12.4006C21.5999 11.7381 22.1371 11.2002 22.799 11.2002C23.4608 11.2002 23.9999 11.7381 23.9999 12.4006Z" fill="white"/>
</svg>
