<svg width="32" height="36" viewBox="0 0 32 36" fill="none" xmlns="http://www.w3.org/2000/svg">
<path d="M19.9599 11.7539L3.02942 2.08918C2.81667 1.9658 2.54902 1.97265 2.34314 2.09603C2.13039 2.21941 2 2.43876 2 2.68551C2 2.68551 2.00686 3.57659 2.01373 5.04344L14.3461 17.3609L19.9599 11.7539Z" fill="url(#paint0_linear_7065_9310)"/>
<path d="M2.01367 5.04346C2.03426 10.3351 2.09603 23.1803 2.12348 29.5755L14.3529 17.3609L2.01367 5.04346Z" fill="url(#paint1_linear_7065_9310)"/>
<path d="M29.6502 17.2854L19.96 11.7539L14.3394 17.3608L20.6806 23.6943L29.6571 18.4713C29.8698 18.3479 30.0002 18.1217 30.0002 17.8818C30.0002 17.635 29.8629 17.4088 29.6502 17.2854V17.2854Z" fill="url(#paint2_linear_7065_9310)"/>
<path d="M2.1167 29.5754C2.13042 31.858 2.13729 33.3179 2.13729 33.3179C2.13729 33.5647 2.26768 33.7909 2.48043 33.9074C2.69317 34.0308 2.95396 34.0308 3.1667 33.9074L20.6874 23.7012L14.3462 17.3677L2.1167 29.5754Z" fill="url(#paint3_linear_7065_9310)"/>
<defs>
<linearGradient id="paint0_linear_7065_9310" x1="2" y1="9.68348" x2="19.963" y2="9.68348" gradientUnits="userSpaceOnUse">
<stop stop-color="#63BE6B"/>
<stop offset="0.506" stop-color="#5BBC6A"/>
<stop offset="1" stop-color="#4AB96A"/>
</linearGradient>
<linearGradient id="paint1_linear_7065_9310" x1="2.01038" y1="17.3124" x2="14.3458" y2="17.3124" gradientUnits="userSpaceOnUse">
<stop stop-color="#3EC6F2"/>
<stop offset="1" stop-color="#45AFE3"/>
</linearGradient>
<linearGradient id="paint2_linear_7065_9310" x1="14.3459" y1="17.7285" x2="29.9986" y2="17.7285" gradientUnits="userSpaceOnUse">
<stop stop-color="#FAA51A"/>
<stop offset="0.387" stop-color="#FAB716"/>
<stop offset="0.741" stop-color="#FAC412"/>
<stop offset="1" stop-color="#FAC80F"/>
</linearGradient>
<linearGradient id="paint3_linear_7065_9310" x1="2.11972" y1="25.6835" x2="20.6871" y2="25.6835" gradientUnits="userSpaceOnUse">
<stop stop-color="#EC3B50"/>
<stop offset="1" stop-color="#E7515B"/>
</linearGradient>
</defs>
</svg>
