<svg width="88" height="88" viewBox="0 0 88 88" fill="none" xmlns="http://www.w3.org/2000/svg">
<path fill-rule="evenodd" clip-rule="evenodd" d="M56.9967 44.4618C62.1649 42.7759 65.8976 37.9364 65.8976 32.2294C65.8976 25.1215 60.1076 19.3594 52.9654 19.3594C45.8231 19.3594 40.0332 25.1215 40.0332 32.2294C40.0332 37.9363 43.7657 42.7757 48.9338 44.4617C38.22 46.3569 30.085 55.6727 30.085 66.8794H75.845C75.845 55.6729 67.7102 46.3572 56.9967 44.4618Z" fill="#EEEAE2"/>
<mask id="path-2-outside-1_1450_85631" maskUnits="userSpaceOnUse" x="12.2441" y="21.6445" width="50" height="52" fill="black">
<rect fill="white" x="12.2441" y="21.6445" width="50" height="52"/>
<path fill-rule="evenodd" clip-rule="evenodd" d="M41.1559 48.7469C46.3241 47.061 50.0567 42.2216 50.0567 36.5145C50.0567 29.4066 44.2668 23.6445 37.1246 23.6445C29.9823 23.6445 24.1924 29.4066 24.1924 36.5145C24.1924 42.2215 27.9249 47.0608 33.093 48.7468C22.3792 50.6421 14.2441 59.9578 14.2441 71.1645H60.0041C60.0041 59.958 51.8694 50.6424 41.1559 48.7469Z"/>
</mask>
<path fill-rule="evenodd" clip-rule="evenodd" d="M41.1559 48.7469C46.3241 47.061 50.0567 42.2216 50.0567 36.5145C50.0567 29.4066 44.2668 23.6445 37.1246 23.6445C29.9823 23.6445 24.1924 29.4066 24.1924 36.5145C24.1924 42.2215 27.9249 47.0608 33.093 48.7468C22.3792 50.6421 14.2441 59.9578 14.2441 71.1645H60.0041C60.0041 59.958 51.8694 50.6424 41.1559 48.7469Z" fill="#2A4BBF"/>
<path d="M41.1559 48.7469L40.5356 46.8455L40.8074 50.7163L41.1559 48.7469ZM33.093 48.7468L33.4413 50.7162L33.7132 46.8454L33.093 48.7468ZM14.2441 71.1645H12.2441V73.1645H14.2441V71.1645ZM60.0041 71.1645V73.1645H62.0041V71.1645H60.0041ZM48.0567 36.5145C48.0567 41.3254 44.9104 45.4185 40.5356 46.8455L41.7761 50.6483C47.7378 48.7036 52.0567 43.1178 52.0567 36.5145H48.0567ZM37.1246 25.6445C43.1713 25.6445 48.0567 30.5203 48.0567 36.5145H52.0567C52.0567 28.293 45.3623 21.6445 37.1246 21.6445V25.6445ZM26.1924 36.5145C26.1924 30.5203 31.0778 25.6445 37.1246 25.6445V21.6445C28.8868 21.6445 22.1924 28.293 22.1924 36.5145H26.1924ZM33.7132 46.8454C29.3386 45.4183 26.1924 41.3253 26.1924 36.5145H22.1924C22.1924 43.1176 26.5111 48.7034 32.4727 50.6482L33.7132 46.8454ZM32.7446 46.7774C21.099 48.8375 12.2441 58.964 12.2441 71.1645H16.2441C16.2441 60.9517 23.6594 52.4466 33.4413 50.7162L32.7446 46.7774ZM14.2441 73.1645H60.0041V69.1645H14.2441V73.1645ZM62.0041 71.1645C62.0041 58.9642 53.1496 48.8378 41.5043 46.7775L40.8074 50.7163C50.5891 52.4469 58.0041 60.9519 58.0041 71.1645H62.0041Z" fill="white" mask="url(#path-2-outside-1_1450_85631)"/>
<path d="M71.4454 63.3619C71.4454 69.68 66.3236 74.8019 60.0054 74.8019C53.6873 74.8019 48.5654 69.68 48.5654 63.3619C48.5654 57.0437 53.6873 51.9219 60.0054 51.9219C66.3236 51.9219 71.4454 57.0437 71.4454 63.3619Z" fill="#4C3D3B" stroke="white" stroke-width="2" stroke-linecap="round" stroke-linejoin="round"/>
<path d="M55.6055 62.6671L59.0684 66.0037L65.4615 59.8438" stroke="white" stroke-width="2" stroke-linecap="round"/>
</svg>
