<svg width="267" height="30" viewBox="0 0 267 30" fill="none" xmlns="http://www.w3.org/2000/svg">
<path d="M1.41016 27.3193V2.6499H21.0694V8.54709H9.32933V11.8199H19.2822V17.4701H9.32933V21.2986H21.5624V27.2884H1.41016V27.3193Z" fill="#2A47BF"/>
<path d="M25.2604 27.3193V2.6499H34.8127C37.247 2.6499 39.0342 2.74252 40.236 2.95865C41.4377 3.17478 42.4546 3.54528 43.3482 4.03928C45.0429 5.02729 46.3371 6.44757 47.1999 8.26921C48.0627 10.0909 48.4941 12.3139 48.4941 14.9692C48.4941 17.7479 47.9703 20.1253 46.8918 22.0087C45.8441 23.923 44.2726 25.3124 42.1772 26.2387C41.3761 26.6092 40.3592 26.8562 39.1575 27.0105C37.9557 27.1649 36.0145 27.2575 33.3645 27.2575H25.2604V27.3193ZM33.1488 21.0825H35.2749C37.247 21.0825 38.6028 20.6502 39.3732 19.7548C40.1435 18.8903 40.5133 17.3157 40.5133 15.0309C40.5133 12.7461 40.1127 11.2332 39.3424 10.307C38.572 9.38072 37.247 8.91759 35.3674 8.91759H33.1488V21.0825V21.0825Z" fill="#2A47BF"/>
<path d="M52.224 27.3193V2.6499H60.2972V27.3193H52.224Z" fill="#2A47BF"/>
<path d="M72.8677 27.3193V18.1802L63.8084 2.6499H72.5596L76.7811 11.048L81.0642 2.6499H89.5996L80.756 18.1802V27.3193H72.8677Z" fill="#2A47BF"/>
<path d="M85.8387 27.3193L94.4974 2.6499H102.509L111.168 27.3193H103.341L102.417 24.0465H94.5899L93.6346 27.3193H85.8695H85.8387ZM96.0073 18.8903H100.968L98.5032 10.3379L96.0073 18.8903V18.8903Z" fill="#2A47BF"/>
<path d="M139.732 17.75H147.22C147.004 20.9919 145.864 23.5236 143.799 25.3144C141.735 27.1052 138.962 28.0006 135.418 28.0006C131.474 28.0006 128.362 26.8273 126.112 24.5425C123.832 22.2269 122.723 19.0467 122.723 15.0329C122.723 11.0191 123.863 7.83898 126.081 5.52333C128.331 3.20768 131.381 2.03442 135.233 2.03442C138.808 2.03442 141.612 2.89893 143.645 4.62795C145.679 6.35697 146.85 8.82699 147.066 12.038H139.485C139.362 10.7721 138.962 9.815 138.253 9.16662C137.544 8.51823 136.558 8.20949 135.295 8.20949C133.754 8.20949 132.583 8.76524 131.813 9.90763C131.042 11.05 130.642 12.7482 130.642 15.0329C130.642 17.3177 131.073 18.985 131.874 20.1274C132.706 21.2698 133.908 21.8564 135.51 21.8564C136.743 21.8564 137.698 21.4859 138.438 20.7757C139.146 20.0656 139.578 19.0776 139.701 17.7808L139.732 17.75Z" fill="#2A47BF"/>
<path d="M149.502 14.9985C149.502 10.9847 150.642 7.80456 152.922 5.48892C155.202 3.17327 158.345 2 162.29 2C166.234 2 169.346 3.17327 171.626 5.48892C173.906 7.80456 175.047 10.9847 175.047 14.9985C175.047 19.0123 173.906 22.1616 171.626 24.5081C169.346 26.8238 166.234 27.997 162.29 27.997C158.345 27.997 155.233 26.8238 152.922 24.5081C150.642 22.1925 149.502 19.0123 149.502 14.9985ZM157.483 14.9985C157.483 17.3142 157.883 19.0432 158.654 20.1547C159.424 21.2353 160.657 21.7911 162.29 21.7911C163.923 21.7911 165.155 21.2353 165.926 20.1547C166.696 19.0741 167.066 17.345 167.066 14.9985C167.066 12.652 166.696 10.923 165.926 9.84234C165.155 8.7617 163.954 8.20595 162.29 8.20595C160.626 8.20595 159.424 8.7617 158.654 9.84234C157.883 10.923 157.483 12.652 157.483 14.9985Z" fill="#2A47BF"/>
<path d="M178.681 27.3193V2.6499H197.293V8.85584H186.57V12.6844H195.074V18.6433H186.57V27.3193H178.651H178.681Z" fill="#2A47BF"/>
<path d="M200.283 27.3193V2.6499H218.894V8.85584H208.171V12.6844H216.707V18.6433H208.171V27.3193H200.283Z" fill="#2A47BF"/>
<path d="M221.916 27.3193V2.6499H241.606V8.54709H229.835V11.8199H239.788V17.4701H229.835V21.2986H242.068V27.2884H221.916V27.3193Z" fill="#2A47BF"/>
<path d="M245.763 27.3193V2.6499H265.422V8.54709H253.651V11.8199H263.604V17.4701H253.651V21.2986H265.884V27.2884H245.732L245.763 27.3193Z" fill="#2A47BF"/>
</svg>
